<svg width="256" height="60" viewBox="0 0 256 60" fill="none" xmlns="http://www.w3.org/2000/svg">
<g clip-path="url(#clip0_207_26559)">
<path d="M139.357 11.6612L140.102 12.0261C140.845 11.1751 141.256 10.2395 141.256 9.25693C141.256 7.98337 140.566 6.78819 139.357 5.75488V11.6612Z" fill="url(#paint0_linear_207_26559)"/>
<path fill-rule="evenodd" clip-rule="evenodd" d="M140.094 55.6783V12.0363C140.842 11.1828 141.256 10.2435 141.256 9.25723C141.256 9.18129 141.254 9.10564 141.249 9.03027H141.257L141.257 52.6763L141.256 52.8536L141.256 52.8992C141.256 53.8855 140.842 54.8248 140.094 55.6783ZM141.256 13.4756L141.256 13.4563C141.256 13.3931 141.254 13.3302 141.249 13.2675C141.254 13.3366 141.256 13.406 141.256 13.4756Z" fill="url(#paint1_linear_207_26559)"/>
<path d="M139.357 55.2336L140.095 55.6731V12.0183L139.357 11.6582V55.2336Z" fill="#323232"/>
<path d="M108.67 17.6545L112.446 16.3555L119.542 19.4259L115.644 21.1777L108.67 17.6545Z" fill="url(#paint2_linear_207_26559)"/>
<path d="M108.67 33.506L112.446 32.207L119.542 35.2775L115.83 37.2852L108.67 33.506Z" fill="url(#paint3_linear_207_26559)"/>
<path d="M108.68 33.5071V44.9391L115.592 48.2564V37.0508L108.68 33.5071Z" fill="#535353"/>
<path d="M108.68 29.3832L115.592 32.9585V21.1329L108.68 17.6581V29.3832Z" fill="#535353"/>
<path d="M108.68 13.4652L115.592 17.0406V4.59964L108.68 1.29785V13.4652Z" fill="#535353"/>
<path fill-rule="evenodd" clip-rule="evenodd" d="M136.526 14.4886C133.925 15.6482 130.456 16.3561 126.648 16.3561C118.577 16.3561 112.035 13.1783 112.035 9.25822C112.035 9.18228 112.037 9.10662 112.042 9.03125H112.035V9.25822L112.035 13.4575V13.474L112.035 13.4916L112.035 13.5091V52.8566L112.035 52.887L112.035 52.9022C112.035 56.8222 118.577 60.0001 126.648 60.0001C130.456 60.0001 133.925 59.2922 136.526 58.1326V14.4886ZM112.035 13.4575C112.035 13.3956 112.037 13.334 112.041 13.2725C112.037 13.3379 112.035 13.4035 112.035 13.4692L112.035 13.4575Z" fill="url(#paint4_linear_207_26559)"/>
<path d="M116.587 1.79087L112.447 -0.00390625L108.67 1.29511L115.6 4.61384C113.38 5.85844 112.035 7.48187 112.035 9.25845C112.035 13.1783 118.578 16.3567 126.649 16.3567C130.458 16.3567 133.927 15.6487 136.529 14.4888L132.154 12.4563L132.211 12.4072C130.619 12.8479 128.708 13.1044 126.652 13.1044C121.115 13.1044 116.624 11.2421 116.594 8.94007H116.587V1.79087Z" fill="url(#paint5_linear_207_26559)"/>
<path d="M128.617 53.9985H124.975V53.5904C125.206 53.5836 125.39 53.5632 125.526 53.5292C125.669 53.4884 125.778 53.417 125.852 53.315C125.927 53.213 125.978 53.0702 126.005 52.8865C126.033 52.6961 126.046 52.4411 126.046 52.1214V48.0206C126.046 47.7349 126.033 47.5003 126.005 47.3167C125.985 47.1263 125.941 46.9767 125.873 46.8678C125.805 46.759 125.706 46.6842 125.577 46.6434C125.455 46.5958 125.288 46.5652 125.077 46.5516V46.1436H128.515V46.5516C128.304 46.5652 128.134 46.5958 128.005 46.6434C127.882 46.6842 127.787 46.759 127.719 46.8678C127.651 46.9767 127.604 47.1263 127.576 47.3167C127.556 47.5003 127.546 47.7349 127.546 48.0206V52.1214C127.546 52.4411 127.556 52.6961 127.576 52.8865C127.604 53.0702 127.655 53.213 127.729 53.315C127.811 53.417 127.92 53.4884 128.056 53.5292C128.199 53.5632 128.386 53.5836 128.617 53.5904V53.9985Z" fill="url(#paint6_linear_207_26559)"/>
</g>
<defs>
<linearGradient id="paint0_linear_207_26559" x1="117.969" y1="3.55704" x2="124.046" y2="20.1438" gradientUnits="userSpaceOnUse">
<stop stop-color="#DDDDDD"/>
<stop offset="0.273661" stop-color="#CACACA"/>
<stop offset="0.679935" stop-color="#8C8C8C"/>
<stop offset="1" stop-color="#575656"/>
</linearGradient>
<linearGradient id="paint1_linear_207_26559" x1="112.032" y1="26.5991" x2="143.818" y2="23.9159" gradientUnits="userSpaceOnUse">
<stop stop-color="#8A8A8A"/>
<stop offset="0.296863" stop-color="#C5C5C5"/>
<stop offset="0.479166" stop-color="#D4D4D4"/>
<stop offset="0.750015" stop-color="#BDB2B2"/>
<stop offset="1" stop-color="#777777"/>
</linearGradient>
<linearGradient id="paint2_linear_207_26559" x1="111.773" y1="17.4054" x2="113.398" y2="22.4248" gradientUnits="userSpaceOnUse">
<stop stop-color="#DDDDDD"/>
<stop offset="0.273661" stop-color="#CACACA"/>
<stop offset="0.679935" stop-color="#8C8C8C"/>
<stop offset="1" stop-color="#575656"/>
</linearGradient>
<linearGradient id="paint3_linear_207_26559" x1="111.773" y1="33.3127" x2="113.557" y2="38.5444" gradientUnits="userSpaceOnUse">
<stop stop-color="#DDDDDD"/>
<stop offset="0.273661" stop-color="#CACACA"/>
<stop offset="0.679935" stop-color="#8C8C8C"/>
<stop offset="1" stop-color="#575656"/>
</linearGradient>
<linearGradient id="paint4_linear_207_26559" x1="112.035" y1="26.6008" x2="143.822" y2="23.9175" gradientUnits="userSpaceOnUse">
<stop stop-color="#8A8A8A"/>
<stop offset="0.296863" stop-color="#C5C5C5"/>
<stop offset="0.479166" stop-color="#D4D4D4"/>
<stop offset="0.750015" stop-color="#BDB2B2"/>
<stop offset="1" stop-color="#777777"/>
</linearGradient>
<linearGradient id="paint5_linear_207_26559" x1="117.974" y1="3.55829" x2="124.051" y2="20.1458" gradientUnits="userSpaceOnUse">
<stop stop-color="#DDDDDD"/>
<stop offset="0.273661" stop-color="#CACACA"/>
<stop offset="0.679935" stop-color="#8C8C8C"/>
<stop offset="1" stop-color="#575656"/>
</linearGradient>
<linearGradient id="paint6_linear_207_26559" x1="118.035" y1="53.9985" x2="118.543" y2="46.1518" gradientUnits="userSpaceOnUse">
<stop stop-color="#525252"/>
<stop offset="0.1317" stop-color="#5F5F5F"/>
<stop offset="0.3569" stop-color="#6E6E6E"/>
<stop offset="0.6186" stop-color="#777777"/>
<stop offset="1" stop-color="#7A7A7A"/>
</linearGradient>
<clipPath id="clip0_207_26559">
<rect width="256" height="60" fill="white"/>
</clipPath>
</defs>
</svg>
