<svg width="256" height="60" viewBox="0 0 256 60" fill="none" xmlns="http://www.w3.org/2000/svg">
<g clip-path="url(#clip0_207_26560)">
<path d="M139.358 11.6612L140.103 12.0261C140.847 11.1751 141.258 10.2395 141.258 9.25693C141.258 7.98337 140.567 6.78819 139.358 5.75488V11.6612Z" fill="url(#paint0_linear_207_26560)"/>
<path fill-rule="evenodd" clip-rule="evenodd" d="M140.095 55.6783V12.0363C140.844 11.1828 141.258 10.2435 141.258 9.25723C141.258 9.18129 141.255 9.10564 141.25 9.03027H141.258L141.258 52.6763L141.258 52.8536L141.258 52.8992C141.258 53.8855 140.844 54.8248 140.095 55.6783ZM141.258 13.4756L141.258 13.4563C141.258 13.3931 141.256 13.3302 141.251 13.2675C141.255 13.3366 141.258 13.406 141.258 13.4756Z" fill="url(#paint1_linear_207_26560)"/>
<path d="M139.358 55.2345L140.096 55.674V12.0193L139.358 11.6592V55.2345Z" fill="#323232"/>
<path d="M108.67 36.1623L112.446 34.8633L119.542 37.9337L115.708 39.6416L108.67 36.1623Z" fill="url(#paint2_linear_207_26560)"/>
<path d="M108.67 26.0803L112.446 24.7812L119.542 27.8517L115.805 29.6104L108.67 26.0803Z" fill="url(#paint3_linear_207_26560)"/>
<path d="M108.68 36.1725V44.943L115.593 48.2603V39.5744L108.68 36.1725Z" fill="#535353"/>
<path d="M108.68 31.811L115.593 35.4679V29.495L108.68 26.0859V31.811Z" fill="#535353"/>
<path d="M108.68 21.7316L115.593 25.3885V4.60355L108.68 1.30176V21.7316Z" fill="#535353"/>
<path fill-rule="evenodd" clip-rule="evenodd" d="M136.527 14.4925C133.926 15.6521 130.457 16.36 126.648 16.36C118.578 16.36 112.035 13.1822 112.035 9.26212C112.035 9.18618 112.038 9.11052 112.042 9.03516H112.035V9.26212L112.035 13.4614V13.4779L112.035 13.4955L112.035 13.5131V52.8605L112.035 52.8909L112.035 52.9061C112.035 56.8261 118.578 60.004 126.648 60.004C130.457 60.004 133.926 59.2961 136.527 58.1365V14.4925ZM112.035 13.4614C112.035 13.3995 112.037 13.3379 112.042 13.2764C112.038 13.3418 112.036 13.4074 112.035 13.4731L112.035 13.4614Z" fill="url(#paint4_linear_207_26560)"/>
<path d="M116.587 1.79478L112.446 0L108.67 1.29901L115.6 4.61774C113.38 5.86235 112.035 7.48578 112.035 9.26235C112.035 13.1822 118.578 16.3606 126.649 16.3606C130.458 16.3606 133.927 15.6526 136.528 14.4927L132.154 12.4602L132.211 12.4111C130.618 12.8518 128.707 13.1083 126.651 13.1083C121.115 13.1083 116.623 11.246 116.594 8.94398H116.587V1.79478Z" fill="url(#paint5_linear_207_26560)"/>
<path d="M125.013 54.0024H121.372V53.5943C121.603 53.5875 121.786 53.5671 121.922 53.5331C122.065 53.4923 122.174 53.4209 122.249 53.3189C122.324 53.2169 122.375 53.0741 122.402 52.8904C122.429 52.7 122.443 52.445 122.443 52.1253V48.0245C122.443 47.7388 122.429 47.5042 122.402 47.3206C122.381 47.1302 122.337 46.9806 122.269 46.8717C122.201 46.7629 122.103 46.6881 121.973 46.6473C121.851 46.5997 121.684 46.5691 121.474 46.5555V46.1475H124.911V46.5555C124.701 46.5691 124.531 46.5997 124.401 46.6473C124.279 46.6881 124.184 46.7629 124.116 46.8717C124.048 46.9806 124 47.1302 123.973 47.3206C123.952 47.5042 123.942 47.7388 123.942 48.0245V52.1253C123.942 52.445 123.952 52.7 123.973 52.8904C124 53.0741 124.051 53.2169 124.126 53.3189C124.208 53.4209 124.316 53.4923 124.452 53.5331C124.595 53.5671 124.782 53.5875 125.013 53.5943V54.0024Z" fill="url(#paint6_linear_207_26560)"/>
<path d="M129.798 52.2478L131.124 48.8508C131.253 48.5175 131.355 48.2455 131.43 48.0347C131.511 47.8239 131.573 47.6504 131.613 47.5144C131.654 47.3784 131.681 47.2696 131.695 47.188C131.709 47.1064 131.715 47.0282 131.715 46.9534C131.715 46.7901 131.654 46.6847 131.532 46.6371C131.409 46.5827 131.164 46.5555 130.797 46.5555V46.1475H133.694V46.5555C133.13 46.5555 132.739 46.8309 132.521 47.3818L129.838 54.1044H129.083L126.645 48.1469C126.509 47.8273 126.387 47.5654 126.278 47.3614C126.169 47.1574 126.054 46.9976 125.931 46.8819C125.809 46.7595 125.673 46.6779 125.523 46.6371C125.38 46.5895 125.21 46.5657 125.013 46.5657V46.1475H128.869V46.5657C128.692 46.5725 128.543 46.5827 128.42 46.5963C128.305 46.6099 128.213 46.6337 128.145 46.6677C128.077 46.6949 128.029 46.7357 128.002 46.7901C127.975 46.8377 127.961 46.8989 127.961 46.9738C127.961 47.069 127.978 47.1812 128.012 47.3104C128.046 47.4396 128.097 47.596 128.165 47.7796L129.798 52.2478Z" fill="url(#paint7_linear_207_26560)"/>
</g>
<defs>
<linearGradient id="paint0_linear_207_26560" x1="117.97" y1="3.55704" x2="124.047" y2="20.1438" gradientUnits="userSpaceOnUse">
<stop stop-color="#DDDDDD"/>
<stop offset="0.273661" stop-color="#CACACA"/>
<stop offset="0.679935" stop-color="#8C8C8C"/>
<stop offset="1" stop-color="#575656"/>
</linearGradient>
<linearGradient id="paint1_linear_207_26560" x1="112.033" y1="26.5991" x2="143.819" y2="23.9159" gradientUnits="userSpaceOnUse">
<stop stop-color="#8A8A8A"/>
<stop offset="0.296863" stop-color="#C5C5C5"/>
<stop offset="0.479166" stop-color="#D4D4D4"/>
<stop offset="0.750015" stop-color="#BDB2B2"/>
<stop offset="1" stop-color="#777777"/>
</linearGradient>
<linearGradient id="paint2_linear_207_26560" x1="111.773" y1="35.9037" x2="113.372" y2="40.8859" gradientUnits="userSpaceOnUse">
<stop stop-color="#DDDDDD"/>
<stop offset="0.273661" stop-color="#CACACA"/>
<stop offset="0.679935" stop-color="#8C8C8C"/>
<stop offset="1" stop-color="#575656"/>
</linearGradient>
<linearGradient id="paint3_linear_207_26560" x1="111.773" y1="25.8327" x2="113.402" y2="30.858" gradientUnits="userSpaceOnUse">
<stop stop-color="#DDDDDD"/>
<stop offset="0.273661" stop-color="#CACACA"/>
<stop offset="0.679935" stop-color="#8C8C8C"/>
<stop offset="1" stop-color="#575656"/>
</linearGradient>
<linearGradient id="paint4_linear_207_26560" x1="112.035" y1="26.6048" x2="143.823" y2="23.9214" gradientUnits="userSpaceOnUse">
<stop stop-color="#8A8A8A"/>
<stop offset="0.296863" stop-color="#C5C5C5"/>
<stop offset="0.479166" stop-color="#D4D4D4"/>
<stop offset="0.750015" stop-color="#BDB2B2"/>
<stop offset="1" stop-color="#777777"/>
</linearGradient>
<linearGradient id="paint5_linear_207_26560" x1="117.974" y1="3.56219" x2="124.05" y2="20.1497" gradientUnits="userSpaceOnUse">
<stop stop-color="#DDDDDD"/>
<stop offset="0.273661" stop-color="#CACACA"/>
<stop offset="0.679935" stop-color="#8C8C8C"/>
<stop offset="1" stop-color="#575656"/>
</linearGradient>
<linearGradient id="paint6_linear_207_26560" x1="114.431" y1="54.0024" x2="114.939" y2="46.1557" gradientUnits="userSpaceOnUse">
<stop stop-color="#525252"/>
<stop offset="0.1317" stop-color="#5F5F5F"/>
<stop offset="0.3569" stop-color="#6E6E6E"/>
<stop offset="0.6186" stop-color="#777777"/>
<stop offset="1" stop-color="#7A7A7A"/>
</linearGradient>
<linearGradient id="paint7_linear_207_26560" x1="108.469" y1="54.1044" x2="108.688" y2="46.1286" gradientUnits="userSpaceOnUse">
<stop stop-color="#525252"/>
<stop offset="0.1317" stop-color="#5F5F5F"/>
<stop offset="0.3569" stop-color="#6E6E6E"/>
<stop offset="0.6186" stop-color="#777777"/>
<stop offset="1" stop-color="#7A7A7A"/>
</linearGradient>
<clipPath id="clip0_207_26560">
<rect width="256" height="60" fill="white"/>
</clipPath>
</defs>
</svg>
