<svg width="88" height="64" viewBox="0 0 88 64" fill="none" xmlns="http://www.w3.org/2000/svg">
<path d="M0 0H82C85.3137 0 88 2.68629 88 6V58C88 61.3137 85.3137 64 82 64H0V0Z" fill="#868686"/>
<rect x="2.5" y="2.5" width="83" height="59" rx="4.5" fill="url(#paint0_linear_396_128699)" stroke="url(#paint1_linear_396_128699)"/>
<path d="M29.8784 44.948L33.1507 43.8223L39.2998 46.4831L35.8835 47.8238L29.8784 44.948Z" fill="#FF9E9E"/>
<path d="M29.8872 44.948V7.12793L35.8777 9.98931V47.8228L29.8872 44.948Z" fill="#535353"/>
<path d="M54.1713 14.9826V14.9809L53.7945 14.7964C54.0145 14.4978 54.1445 14.1828 54.1713 13.857V13.6046C54.0115 11.6592 50.1727 10.1025 45.4606 10.1025C40.6469 10.1025 36.7446 11.727 36.7446 13.7308C36.7446 15.7346 40.6469 17.359 45.4606 17.359C47.2417 17.359 48.8484 17.1788 50.2285 16.7971L53.7953 18.4545V14.7991L54.1713 14.9826Z" fill="url(#paint2_linear_396_128699)"/>
<path d="M57.1154 16.4202L53.7954 14.7998V52.2762L57.1154 54.2537V16.4202Z" fill="#323232"/>
<path fill-rule="evenodd" clip-rule="evenodd" d="M54.019 18.5595C51.7649 19.5644 48.759 20.1779 45.4581 20.1779C38.4642 20.1779 32.7944 17.4239 32.7944 14.0268C32.7944 13.961 32.7966 13.8954 32.8008 13.8301H32.7944V14.0268L32.7945 17.6659V17.6802L32.7944 17.6955L32.7945 17.7107V51.8097L32.7944 51.836L32.7945 51.8492C32.7945 55.2464 38.4642 58.0003 45.4582 58.0003C48.759 58.0003 51.7649 57.3869 54.019 56.3819V18.5595ZM32.7945 17.6659C32.7945 17.6123 32.7964 17.5589 32.8004 17.5056C32.7968 17.5623 32.7949 17.6191 32.7945 17.6761L32.7945 17.6659Z" fill="url(#paint3_linear_396_128699)"/>
<path fill-rule="evenodd" clip-rule="evenodd" d="M57.1142 16.4353V54.2577C57.7629 53.518 58.1218 52.704 58.1218 51.8492L58.1216 51.8097L58.122 51.656L58.1219 13.8301H58.1154C58.1197 13.8954 58.1218 13.961 58.1218 14.0268C58.1218 14.8815 57.7629 15.6956 57.1142 16.4353ZM58.1218 17.6659L58.1218 17.6826C58.1215 17.6223 58.1195 17.5622 58.1157 17.5023C58.1198 17.5566 58.1218 17.6112 58.1218 17.6659Z" fill="url(#paint4_linear_396_128699)"/>
<path d="M33.1507 6L29.8784 7.12569L35.8835 10.0016C33.9598 11.0802 32.7945 12.487 32.7945 14.0265C32.7945 17.4234 38.4643 20.1777 45.4582 20.1777C48.7591 20.1777 51.7654 19.5642 54.0197 18.559L50.2288 16.7977L50.2782 16.7552C48.8982 17.137 47.2422 17.3594 45.4606 17.3594C40.647 17.3594 36.7449 15.7348 36.7449 13.7308C36.7449 11.7274 40.647 10.1029 45.4606 10.1029C50.2747 10.1029 54.1768 11.7274 54.1768 13.7314C54.1768 14.1022 54.043 14.4596 53.795 14.7966L57.1214 16.4263C57.7658 15.6889 58.122 14.8781 58.122 14.0265C58.122 10.6291 52.4522 7.87538 45.4582 7.87538C43.2168 7.87538 41.1115 8.15825 39.285 8.65416L33.1507 6Z" fill="url(#paint5_linear_396_128699)"/>
<path d="M47.1559 52.799H44V52.4454C44.2004 52.4395 44.3595 52.4218 44.4774 52.3923C44.6011 52.357 44.6954 52.2951 44.7602 52.2067C44.8251 52.1183 44.8693 51.9945 44.8928 51.8354C44.9164 51.6704 44.9282 51.4494 44.9282 51.1724V47.6187C44.9282 47.3712 44.9164 47.1679 44.8928 47.0088C44.8752 46.8438 44.8369 46.7141 44.7779 46.6198C44.719 46.5255 44.6335 46.4607 44.5216 46.4253C44.4155 46.3841 44.2711 46.3576 44.0884 46.3458V45.9922H47.0675V46.3458C46.8848 46.3576 46.7375 46.3841 46.6255 46.4253C46.5194 46.4607 46.4369 46.5255 46.378 46.6198C46.319 46.7141 46.2778 46.8438 46.2542 47.0088C46.2365 47.1679 46.2277 47.3712 46.2277 47.6187V51.1724C46.2277 51.4494 46.2365 51.6704 46.2542 51.8354C46.2778 51.9945 46.322 52.1183 46.3868 52.2067C46.4575 52.2951 46.5518 52.357 46.6697 52.3923C46.7934 52.4218 46.9555 52.4395 47.1559 52.4454V52.799Z" fill="url(#paint6_linear_396_128699)"/>
<path d="M50.3116 52.799H47.1558V52.4454C47.3561 52.4395 47.5153 52.4218 47.6331 52.3923C47.7569 52.357 47.8512 52.2951 47.916 52.2067C47.9808 52.1183 48.025 51.9945 48.0486 51.8354C48.0722 51.6704 48.084 51.4494 48.084 51.1724V47.6187C48.084 47.3712 48.0722 47.1679 48.0486 47.0088C48.0309 46.8438 47.9926 46.7141 47.9337 46.6198C47.8747 46.5255 47.7893 46.4607 47.6773 46.4253C47.5712 46.3841 47.4269 46.3576 47.2442 46.3458V45.9922H50.2232V46.3458C50.0405 46.3576 49.8932 46.3841 49.7812 46.4253C49.6752 46.4607 49.5927 46.5255 49.5337 46.6198C49.4748 46.7141 49.4335 46.8438 49.41 47.0088C49.3923 47.1679 49.3834 47.3712 49.3834 47.6187V51.1724C49.3834 51.4494 49.3923 51.6704 49.41 51.8354C49.4335 51.9945 49.4777 52.1183 49.5426 52.2067C49.6133 52.2951 49.7076 52.357 49.8254 52.3923C49.9492 52.4218 50.1113 52.4395 50.3116 52.4454V52.799Z" fill="url(#paint7_linear_396_128699)"/>
<path d="M44.0001 52.799H40.8442V52.4454C41.0446 52.4395 41.2037 52.4218 41.3216 52.3923C41.4454 52.357 41.5397 52.2951 41.6045 52.2067C41.6693 52.1183 41.7135 51.9945 41.7371 51.8354C41.7607 51.6704 41.7724 51.4494 41.7724 51.1724V47.6187C41.7724 47.3712 41.7607 47.1679 41.7371 47.0088C41.7194 46.8438 41.6811 46.7141 41.6222 46.6198C41.5632 46.5255 41.4778 46.4607 41.3658 46.4253C41.2597 46.3841 41.1153 46.3576 40.9326 46.3458V45.9922H43.9117V46.3458C43.729 46.3576 43.5817 46.3841 43.4697 46.4253C43.3636 46.4607 43.2811 46.5255 43.2222 46.6198C43.1633 46.7141 43.122 46.8438 43.0984 47.0088C43.0808 47.1679 43.0719 47.3712 43.0719 47.6187V51.1724C43.0719 51.4494 43.0808 51.6704 43.0984 51.8354C43.122 51.9945 43.1662 52.1183 43.231 52.2067C43.3018 52.2951 43.3961 52.357 43.5139 52.3923C43.6377 52.4218 43.7997 52.4395 44.0001 52.4454V52.799Z" fill="url(#paint8_linear_396_128699)"/>
<defs>
<linearGradient id="paint0_linear_396_128699" x1="44" y1="2" x2="44" y2="62" gradientUnits="userSpaceOnUse">
<stop stop-color="#F0F0F0"/>
<stop offset="1" stop-color="#A0A0A0"/>
</linearGradient>
<linearGradient id="paint1_linear_396_128699" x1="44" y1="2" x2="44" y2="62" gradientUnits="userSpaceOnUse">
<stop stop-color="#A1A1A1"/>
<stop offset="1" stop-color="#FEFEFE"/>
</linearGradient>
<linearGradient id="paint2_linear_396_128699" x1="37.2683" y1="15.1345" x2="53.4186" y2="12.1456" gradientUnits="userSpaceOnUse">
<stop stop-color="#3A3A3A"/>
<stop offset="0.25" stop-color="#6E6A6A"/>
<stop offset="0.5" stop-color="#8A8585"/>
<stop offset="0.75" stop-color="#777373"/>
<stop offset="1" stop-color="#3D3D3D"/>
</linearGradient>
<linearGradient id="paint3_linear_396_128699" x1="32.7944" y1="29.0561" x2="60.3418" y2="26.7307" gradientUnits="userSpaceOnUse">
<stop stop-color="#8A8A8A"/>
<stop offset="0.296863" stop-color="#C5C5C5"/>
<stop offset="0.479166" stop-color="#D4D4D4"/>
<stop offset="0.750015" stop-color="#BDB2B2"/>
<stop offset="1" stop-color="#777777"/>
</linearGradient>
<linearGradient id="paint4_linear_396_128699" x1="32.7944" y1="29.0561" x2="60.3418" y2="26.7307" gradientUnits="userSpaceOnUse">
<stop stop-color="#8A8A8A"/>
<stop offset="0.296863" stop-color="#C5C5C5"/>
<stop offset="0.479166" stop-color="#D4D4D4"/>
<stop offset="0.750015" stop-color="#BDB2B2"/>
<stop offset="1" stop-color="#777777"/>
</linearGradient>
<linearGradient id="paint5_linear_396_128699" x1="37.9407" y1="9.0869" x2="43.2068" y2="23.4612" gradientUnits="userSpaceOnUse">
<stop stop-color="#DDDDDD"/>
<stop offset="0.273661" stop-color="#CACACA"/>
<stop offset="0.679935" stop-color="#8C8C8C"/>
<stop offset="1" stop-color="#575656"/>
</linearGradient>
<linearGradient id="paint6_linear_396_128699" x1="37.9856" y1="52.799" x2="38.4258" y2="45.9994" gradientUnits="userSpaceOnUse">
<stop stop-color="#525252"/>
<stop offset="0.1317" stop-color="#5F5F5F"/>
<stop offset="0.3569" stop-color="#6E6E6E"/>
<stop offset="0.6186" stop-color="#777777"/>
<stop offset="1" stop-color="#7A7A7A"/>
</linearGradient>
<linearGradient id="paint7_linear_396_128699" x1="41.1414" y1="52.799" x2="41.5816" y2="45.9994" gradientUnits="userSpaceOnUse">
<stop stop-color="#525252"/>
<stop offset="0.1317" stop-color="#5F5F5F"/>
<stop offset="0.3569" stop-color="#6E6E6E"/>
<stop offset="0.6186" stop-color="#777777"/>
<stop offset="1" stop-color="#7A7A7A"/>
</linearGradient>
<linearGradient id="paint8_linear_396_128699" x1="34.8298" y1="52.799" x2="35.2701" y2="45.9994" gradientUnits="userSpaceOnUse">
<stop stop-color="#525252"/>
<stop offset="0.1317" stop-color="#5F5F5F"/>
<stop offset="0.3569" stop-color="#6E6E6E"/>
<stop offset="0.6186" stop-color="#777777"/>
<stop offset="1" stop-color="#7A7A7A"/>
</linearGradient>
</defs>
</svg>
