<svg width="88" height="64" viewBox="0 0 88 64" fill="none" xmlns="http://www.w3.org/2000/svg">
<path d="M0 0H82C85.3137 0 88 2.68629 88 6V58C88 61.3137 85.3137 64 82 64H0V0Z" fill="#868686"/>
<rect x="2.5" y="2.5" width="83" height="59" rx="4.5" fill="url(#paint0_linear_396_128686)" stroke="url(#paint1_linear_396_128686)"/>
<path d="M29.8784 22.9704L33.1507 21.8447L39.2998 24.5055L35.9821 25.9757L29.8784 22.9704Z" fill="url(#paint2_linear_396_128686)"/>
<path d="M29.8872 22.9799V44.948L35.8777 47.8228V25.9112L29.8872 22.9799Z" fill="#535353"/>
<path d="M29.8872 19.268L35.8777 22.3664V9.9893L29.8872 7.12793V19.268Z" fill="#535353"/>
<path d="M54.1713 14.9826V14.9809L53.7945 14.7964C54.0145 14.4978 54.1445 14.1828 54.1713 13.857V13.6046C54.0115 11.6592 50.1727 10.1025 45.4606 10.1025C40.6469 10.1025 36.7446 11.727 36.7446 13.7308C36.7446 15.7346 40.6469 17.359 45.4606 17.359C47.2417 17.359 48.8484 17.1788 50.2285 16.7971L53.7953 18.4545V14.7991L54.1713 14.9826Z" fill="url(#paint3_linear_396_128686)"/>
<path d="M57.1154 16.4202L53.7954 14.7998V52.2762L57.1154 54.2537V16.4202Z" fill="#323232"/>
<path fill-rule="evenodd" clip-rule="evenodd" d="M54.019 18.5595C51.7649 19.5644 48.759 20.1779 45.4581 20.1779C38.4642 20.1779 32.7944 17.4239 32.7944 14.0268C32.7944 13.961 32.7966 13.8954 32.8008 13.8301H32.7944V14.0268L32.7945 17.6659V17.6802L32.7944 17.6955L32.7945 17.7107V51.8096L32.7944 51.836L32.7945 51.8492C32.7945 55.2463 38.4642 58.0003 45.4581 58.0003C48.759 58.0003 51.7649 57.3869 54.019 56.3819V18.5595ZM32.7945 17.6659C32.7945 17.6123 32.7964 17.5589 32.8004 17.5056C32.7968 17.5623 32.7949 17.6191 32.7945 17.6761L32.7945 17.6659Z" fill="url(#paint4_linear_396_128686)"/>
<path fill-rule="evenodd" clip-rule="evenodd" d="M57.1142 16.4353V54.2577C57.7629 53.518 58.1218 52.704 58.1218 51.8492L58.1216 51.8096L58.1219 51.656L58.1219 13.8301H58.1154C58.1197 13.8954 58.1218 13.961 58.1218 14.0268C58.1218 14.8815 57.7629 15.6956 57.1142 16.4353ZM58.1218 17.6659L58.1218 17.6826C58.1215 17.6223 58.1195 17.5622 58.1157 17.5023C58.1198 17.5566 58.1218 17.6112 58.1218 17.6659Z" fill="url(#paint5_linear_396_128686)"/>
<path d="M33.1507 6L29.8784 7.12569L35.8825 10.0011C33.9586 11.0799 32.7945 12.4872 32.7945 14.0265C32.7945 17.4236 38.4642 20.1776 45.4582 20.1776C48.7593 20.1776 51.7654 19.5641 54.0196 18.559L50.2288 16.7974L50.2783 16.7552C48.8983 17.137 47.242 17.3594 45.4608 17.3594C40.6472 17.3594 36.7449 15.7349 36.7449 13.7311C36.7449 11.7273 40.6472 10.1029 45.4608 10.1029C50.2745 10.1029 54.1767 11.7273 54.1767 13.7311C54.1767 14.1019 54.0431 14.4598 53.7948 14.7967L57.1217 16.4265C57.7657 15.6891 58.1219 14.878 58.1219 14.0265C58.1219 10.6293 52.4521 7.87538 45.4582 7.87538C43.2168 7.87538 41.1114 8.15822 39.2851 8.65442L33.1507 6Z" fill="url(#paint6_linear_396_128686)"/>
<path d="M45.4952 52.799H42.3394V52.4454C42.5397 52.4395 42.6988 52.4218 42.8167 52.3923C42.9405 52.357 43.0348 52.2951 43.0996 52.2067C43.1644 52.1183 43.2086 51.9945 43.2322 51.8354C43.2558 51.6704 43.2676 51.4494 43.2676 51.1724V47.6187C43.2676 47.3712 43.2558 47.1679 43.2322 47.0088C43.2145 46.8438 43.1762 46.7141 43.1173 46.6198C43.0583 46.5255 42.9729 46.4607 42.8609 46.4253C42.7548 46.3841 42.6104 46.3576 42.4278 46.3458V45.9922H45.4068V46.3458C45.2241 46.3576 45.0768 46.3841 44.9648 46.4253C44.8588 46.4607 44.7762 46.5255 44.7173 46.6198C44.6584 46.7141 44.6171 46.8438 44.5936 47.0088C44.5759 47.1679 44.567 47.3712 44.567 47.6187V51.1724C44.567 51.4494 44.5759 51.6704 44.5936 51.8354C44.6171 51.9945 44.6613 52.1183 44.7262 52.2067C44.7969 52.2951 44.8912 52.357 45.009 52.3923C45.1328 52.4218 45.2949 52.4395 45.4952 52.4454V52.799Z" fill="url(#paint7_linear_396_128686)"/>
<path d="M48.651 52.799H45.4951V52.4454C45.6955 52.4395 45.8546 52.4218 45.9725 52.3923C46.0962 52.357 46.1905 52.2951 46.2554 52.2067C46.3202 52.1183 46.3644 51.9945 46.388 51.8354C46.4115 51.6704 46.4233 51.4494 46.4233 51.1724V47.6187C46.4233 47.3712 46.4115 47.1679 46.388 47.0088C46.3703 46.8438 46.332 46.7141 46.273 46.6198C46.2141 46.5255 46.1287 46.4607 46.0167 46.4253C45.9106 46.3841 45.7662 46.3576 45.5835 46.3458V45.9922H48.5626V46.3458C48.3799 46.3576 48.2326 46.3841 48.1206 46.4253C48.0145 46.4607 47.932 46.5255 47.8731 46.6198C47.8141 46.7141 47.7729 46.8438 47.7493 47.0088C47.7316 47.1679 47.7228 47.3712 47.7228 47.6187V51.1724C47.7228 51.4494 47.7316 51.6704 47.7493 51.8354C47.7729 51.9945 47.8171 52.1183 47.8819 52.2067C47.9526 52.2951 48.0469 52.357 48.1648 52.3923C48.2886 52.4218 48.4506 52.4395 48.651 52.4454V52.799Z" fill="url(#paint8_linear_396_128686)"/>
<defs>
<linearGradient id="paint0_linear_396_128686" x1="44" y1="2" x2="44" y2="62" gradientUnits="userSpaceOnUse">
<stop stop-color="#F0F0F0"/>
<stop offset="1" stop-color="#A0A0A0"/>
</linearGradient>
<linearGradient id="paint1_linear_396_128686" x1="44" y1="2" x2="44" y2="62" gradientUnits="userSpaceOnUse">
<stop stop-color="#A1A1A1"/>
<stop offset="1" stop-color="#FEFEFE"/>
</linearGradient>
<linearGradient id="paint2_linear_396_128686" x1="32.5678" y1="22.7442" x2="33.9468" y2="27.0533" gradientUnits="userSpaceOnUse">
<stop stop-color="#DDDDDD"/>
<stop offset="0.273661" stop-color="#CACACA"/>
<stop offset="0.679935" stop-color="#8C8C8C"/>
<stop offset="1" stop-color="#575656"/>
</linearGradient>
<linearGradient id="paint3_linear_396_128686" x1="37.2683" y1="15.1345" x2="53.4186" y2="12.1456" gradientUnits="userSpaceOnUse">
<stop stop-color="#3A3A3A"/>
<stop offset="0.25" stop-color="#6E6A6A"/>
<stop offset="0.5" stop-color="#8A8585"/>
<stop offset="0.75" stop-color="#777373"/>
<stop offset="1" stop-color="#3D3D3D"/>
</linearGradient>
<linearGradient id="paint4_linear_396_128686" x1="32.7944" y1="29.0561" x2="60.3418" y2="26.7307" gradientUnits="userSpaceOnUse">
<stop stop-color="#8A8A8A"/>
<stop offset="0.296863" stop-color="#C5C5C5"/>
<stop offset="0.479166" stop-color="#D4D4D4"/>
<stop offset="0.750015" stop-color="#BDB2B2"/>
<stop offset="1" stop-color="#777777"/>
</linearGradient>
<linearGradient id="paint5_linear_396_128686" x1="32.7944" y1="29.0561" x2="60.3418" y2="26.7307" gradientUnits="userSpaceOnUse">
<stop stop-color="#8A8A8A"/>
<stop offset="0.296863" stop-color="#C5C5C5"/>
<stop offset="0.479166" stop-color="#D4D4D4"/>
<stop offset="0.750015" stop-color="#BDB2B2"/>
<stop offset="1" stop-color="#777777"/>
</linearGradient>
<linearGradient id="paint6_linear_396_128686" x1="37.9407" y1="9.0869" x2="43.2068" y2="23.4612" gradientUnits="userSpaceOnUse">
<stop stop-color="#DDDDDD"/>
<stop offset="0.273661" stop-color="#CACACA"/>
<stop offset="0.679935" stop-color="#8C8C8C"/>
<stop offset="1" stop-color="#575656"/>
</linearGradient>
<linearGradient id="paint7_linear_396_128686" x1="36.3249" y1="52.799" x2="36.7652" y2="45.9994" gradientUnits="userSpaceOnUse">
<stop stop-color="#525252"/>
<stop offset="0.1317" stop-color="#5F5F5F"/>
<stop offset="0.3569" stop-color="#6E6E6E"/>
<stop offset="0.6186" stop-color="#777777"/>
<stop offset="1" stop-color="#7A7A7A"/>
</linearGradient>
<linearGradient id="paint8_linear_396_128686" x1="39.4807" y1="52.799" x2="39.9209" y2="45.9994" gradientUnits="userSpaceOnUse">
<stop stop-color="#525252"/>
<stop offset="0.1317" stop-color="#5F5F5F"/>
<stop offset="0.3569" stop-color="#6E6E6E"/>
<stop offset="0.6186" stop-color="#777777"/>
<stop offset="1" stop-color="#7A7A7A"/>
</linearGradient>
</defs>
</svg>
