<svg width="256" height="256" viewBox="0 0 256 256" fill="none" xmlns="http://www.w3.org/2000/svg">
<path d="M0 6C0 2.68629 2.68629 0 6 0H256V256H6C2.68629 256 0 253.314 0 250V6Z" fill="#868686"/>
<path d="M3 9C3 5.68629 5.68629 3 9 3H249C251.209 3 253 4.79086 253 7V248C253 250.761 250.761 253 248 253H9C5.68629 253 3 250.314 3 247V9Z" fill="url(#paint0_linear_396_217204)"/>
<path d="M143.053 215.595H143.046C143.051 215.672 143.053 215.75 143.053 215.829C143.053 217.596 141.762 219.217 139.612 220.482H116.389C114.239 219.217 112.948 217.596 112.948 215.829C112.948 215.75 112.95 215.672 112.955 215.595H112.948V215.829V219.96H112.955C112.95 220.036 112.948 220.113 112.948 220.189C112.948 220.287 112.952 220.385 112.96 220.482H112.948V256H143.053V220.482H143.042C143.049 220.385 143.053 220.287 143.053 220.189C143.053 220.113 143.051 220.036 143.046 219.96H143.053V215.595Z" fill="url(#paint1_linear_396_217204)"/>
<path d="M106.347 207.491C106.347 201.683 116.041 196.974 128 196.974C139.959 196.974 149.653 201.683 149.653 207.491C149.653 213.3 139.959 218.009 128 218.009C116.041 218.009 106.347 213.3 106.347 207.491Z" fill="url(#paint2_linear_396_217204)"/>
<path d="M149.653 207.154H149.642C149.65 207.266 149.653 207.378 149.653 207.491C149.653 213.299 139.959 218.008 128 218.008C116.041 218.008 106.347 213.299 106.347 207.491C106.347 207.378 106.35 207.266 106.358 207.154H106.347V207.491V213.433H106.357C106.35 213.543 106.347 213.653 106.347 213.764C106.347 219.572 116.041 224.281 128 224.281C139.959 224.281 149.653 219.572 149.653 213.764C149.653 213.653 149.65 213.543 149.643 213.433H149.653V207.154Z" fill="url(#paint3_linear_396_217204)"/>
<path d="M136.7 26.2305V205.702H136.614C135.964 208.066 131.749 209.89 126.646 209.89C121.543 209.89 117.327 208.066 116.678 205.702H116.591V26.2305H116.593C116.678 28.8607 121.146 30.9803 126.646 30.9803C132.145 30.9803 136.615 28.8607 136.7 26.2305Z" fill="url(#paint4_linear_396_217204)"/>
<path d="M135.738 32.8721L132.533 31.376V209.082L135.738 210.628V32.8721Z" fill="#4D4D4D"/>
<path d="M135.74 32.8687L139.361 30.3682V207.74L135.767 210.646L135.745 178.57L135.767 178.553L135.745 147.441L135.766 147.424L135.745 116.645L135.765 116.629L135.745 88.3542L135.767 88.3368L135.745 57.2248L135.766 57.2076L135.74 32.8687Z" fill="#AC9393"/>
<path d="M135.74 32.8757L132.542 31.3906L136.672 29.0859L139.364 30.3685L135.74 32.8757Z" fill="#FFF1F1"/>
<path d="M121.23 199.336L126.426 192.048H127.778V199.293C128.12 199.283 128.4 199.26 128.618 199.222C128.836 199.174 129.007 199.103 129.13 199.008C129.254 198.904 129.339 198.766 129.386 198.595C129.434 198.425 129.458 198.202 129.458 197.926H129.984V201.385H129.458C129.458 201.129 129.434 200.92 129.386 200.759C129.339 200.598 129.254 200.474 129.13 200.389C129.007 200.294 128.836 200.232 128.618 200.204C128.4 200.166 128.12 200.142 127.778 200.133V200.574C127.778 200.906 127.792 201.195 127.821 201.442C127.859 201.689 127.925 201.898 128.02 202.068C128.115 202.23 128.248 202.353 128.419 202.438C128.599 202.524 128.827 202.571 129.102 202.581V203.15H124.22V202.581C124.552 202.571 124.817 202.524 125.017 202.438C125.225 202.344 125.382 202.215 125.486 202.054C125.6 201.893 125.676 201.698 125.714 201.471C125.752 201.243 125.771 200.977 125.771 200.674V200.19H121.23V199.336ZM125.771 194.681H125.714L122.44 199.293H125.771V194.681Z" fill="url(#paint5_linear_396_217204)"/>
<rect x="3" y="3" width="250" height="250" rx="4" stroke="url(#paint6_linear_396_217204)" stroke-width="2"/>
<defs>
<linearGradient id="paint0_linear_396_217204" x1="128" y1="3" x2="128" y2="253" gradientUnits="userSpaceOnUse">
<stop stop-color="white"/>
<stop offset="1" stop-color="#C5C5C5"/>
</linearGradient>
<linearGradient id="paint1_linear_396_217204" x1="112.948" y1="253.839" x2="145.873" y2="252.524" gradientUnits="userSpaceOnUse">
<stop stop-color="#7F7E7E"/>
<stop offset="0.296863" stop-color="#BAB8B8"/>
<stop offset="0.479166" stop-color="#CAC7C7"/>
<stop offset="0.750015" stop-color="#A59797"/>
<stop offset="1" stop-color="#5F5E5E"/>
</linearGradient>
<linearGradient id="paint2_linear_396_217204" x1="115.146" y1="199.045" x2="124.15" y2="223.623" gradientUnits="userSpaceOnUse">
<stop stop-color="#CFCFCF"/>
<stop offset="1" stop-color="#2D2D2D"/>
</linearGradient>
<linearGradient id="paint3_linear_396_217204" x1="106.347" y1="213.058" x2="148.011" y2="197.549" gradientUnits="userSpaceOnUse">
<stop stop-color="#8A8A8A"/>
<stop offset="0.296863" stop-color="#C5C5C5"/>
<stop offset="0.479166" stop-color="#D4D4D4"/>
<stop offset="0.750015" stop-color="#BDB2B2"/>
<stop offset="1" stop-color="#777777"/>
</linearGradient>
<linearGradient id="paint4_linear_396_217204" x1="116.591" y1="89.5403" x2="138.613" y2="89.1853" gradientUnits="userSpaceOnUse">
<stop stop-color="#8A8A8A"/>
<stop offset="0.296863" stop-color="#C5C5C5"/>
<stop offset="0.479166" stop-color="#D4D4D4"/>
<stop offset="0.750015" stop-color="#BDB2B2"/>
<stop offset="1" stop-color="#777777"/>
</linearGradient>
<linearGradient id="paint5_linear_396_217204" x1="104.548" y1="203.15" x2="104.971" y2="192.029" gradientUnits="userSpaceOnUse">
<stop stop-color="#525252"/>
<stop offset="0.1317" stop-color="#5F5F5F"/>
<stop offset="0.3569" stop-color="#6E6E6E"/>
<stop offset="0.6186" stop-color="#777777"/>
<stop offset="1" stop-color="#7A7A7A"/>
</linearGradient>
<linearGradient id="paint6_linear_396_217204" x1="128" y1="2" x2="128" y2="254" gradientUnits="userSpaceOnUse">
<stop stop-color="#A2A2A2"/>
<stop offset="1" stop-color="#FEFEFE"/>
</linearGradient>
</defs>
</svg>
