<svg width="256" height="60" viewBox="0 0 256 60" fill="none" xmlns="http://www.w3.org/2000/svg">
<g clip-path="url(#clip0_207_26562)">
<path d="M139.357 11.6602L140.102 12.0251C140.845 11.1742 141.256 10.2386 141.256 9.25596C141.256 7.98239 140.566 6.78722 139.357 5.75391V11.6602Z" fill="url(#paint0_linear_207_26562)"/>
<path fill-rule="evenodd" clip-rule="evenodd" d="M140.094 55.6773V12.0353C140.842 11.1818 141.256 10.2425 141.256 9.25625C141.256 9.18031 141.254 9.10466 141.249 9.0293H141.257L141.257 52.6753L141.256 52.8526L141.256 52.8982C141.256 53.8845 140.842 54.8238 140.094 55.6773ZM141.256 13.4746L141.256 13.4553C141.256 13.3922 141.254 13.3292 141.249 13.2665C141.254 13.3356 141.256 13.405 141.256 13.4746Z" fill="url(#paint1_linear_207_26562)"/>
<path d="M139.357 55.2326L140.095 55.6721V12.0174L139.357 11.6572V55.2326Z" fill="#323232"/>
<path d="M108.67 19.5793L112.446 18.2803L119.542 21.3507L115.713 23.0473L108.67 19.5793Z" fill="url(#paint2_linear_207_26562)"/>
<path d="M108.68 19.5897V44.9391L115.592 48.2564V22.9722L108.68 19.5897Z" fill="#535353"/>
<path d="M108.68 15.3065L115.592 18.8818V4.59964L108.68 1.29785V15.3065Z" fill="#535353"/>
<path fill-rule="evenodd" clip-rule="evenodd" d="M136.526 14.4886C133.925 15.6482 130.456 16.3561 126.648 16.3561C118.577 16.3561 112.035 13.1783 112.035 9.25822C112.035 9.18228 112.037 9.10662 112.042 9.03125H112.035V9.25822L112.035 13.4575V13.474L112.035 13.4916L112.035 13.5091V52.8566L112.035 52.887L112.035 52.9022C112.035 56.8222 118.577 60.0001 126.648 60.0001C130.456 60.0001 133.925 59.2922 136.526 58.1326V14.4886ZM112.035 13.4575C112.035 13.3956 112.037 13.334 112.041 13.2725C112.037 13.3379 112.035 13.4035 112.035 13.4692L112.035 13.4575Z" fill="url(#paint3_linear_207_26562)"/>
<path d="M116.587 1.79087L112.447 -0.00390625L108.67 1.29511L115.6 4.61384C113.38 5.85844 112.035 7.48187 112.035 9.25845C112.035 13.1783 118.578 16.3567 126.649 16.3567C130.458 16.3567 133.927 15.6487 136.529 14.4888L132.154 12.4563L132.211 12.4072C130.619 12.8479 128.708 13.1044 126.652 13.1044C121.115 13.1044 116.624 11.2421 116.594 8.94007H116.587V1.79087Z" fill="url(#paint4_linear_207_26562)"/>
<path d="M126.675 53.9985H123.033V53.5904C123.264 53.5836 123.448 53.5632 123.584 53.5292C123.727 53.4884 123.836 53.417 123.911 53.315C123.985 53.213 124.036 53.0702 124.064 52.8865C124.091 52.6961 124.104 52.4411 124.104 52.1214V48.0206C124.104 47.7349 124.091 47.5003 124.064 47.3167C124.043 47.1263 123.999 46.9767 123.931 46.8678C123.863 46.759 123.764 46.6842 123.635 46.6434C123.513 46.5958 123.346 46.5652 123.135 46.5516V46.1436H126.573V46.5516C126.362 46.5652 126.192 46.5958 126.063 46.6434C125.941 46.6842 125.845 46.759 125.777 46.8678C125.709 46.9767 125.662 47.1263 125.635 47.3167C125.614 47.5003 125.604 47.7349 125.604 48.0206V52.1214C125.604 52.4411 125.614 52.6961 125.635 52.8865C125.662 53.0702 125.713 53.213 125.788 53.315C125.869 53.417 125.978 53.4884 126.114 53.5292C126.257 53.5632 126.444 53.5836 126.675 53.5904V53.9985Z" fill="url(#paint5_linear_207_26562)"/>
<path d="M130.316 53.9985H126.674V53.5904C126.906 53.5836 127.089 53.5632 127.225 53.5292C127.368 53.4884 127.477 53.417 127.552 53.315C127.626 53.213 127.677 53.0702 127.705 52.8865C127.732 52.6961 127.745 52.4411 127.745 52.1214V48.0206C127.745 47.7349 127.732 47.5003 127.705 47.3167C127.684 47.1263 127.64 46.9767 127.572 46.8678C127.504 46.759 127.405 46.6842 127.276 46.6434C127.154 46.5958 126.987 46.5652 126.776 46.5516V46.1436H130.214V46.5516C130.003 46.5652 129.833 46.5958 129.704 46.6434C129.582 46.6842 129.486 46.759 129.418 46.8678C129.35 46.9767 129.303 47.1263 129.276 47.3167C129.255 47.5003 129.245 47.7349 129.245 48.0206V52.1214C129.245 52.4411 129.255 52.6961 129.276 52.8865C129.303 53.0702 129.354 53.213 129.429 53.315C129.51 53.417 129.619 53.4884 129.755 53.5292C129.898 53.5632 130.085 53.5836 130.316 53.5904V53.9985Z" fill="url(#paint6_linear_207_26562)"/>
</g>
<defs>
<linearGradient id="paint0_linear_207_26562" x1="117.969" y1="3.55606" x2="124.046" y2="20.1428" gradientUnits="userSpaceOnUse">
<stop stop-color="#DDDDDD"/>
<stop offset="0.273661" stop-color="#CACACA"/>
<stop offset="0.679935" stop-color="#8C8C8C"/>
<stop offset="1" stop-color="#575656"/>
</linearGradient>
<linearGradient id="paint1_linear_207_26562" x1="112.032" y1="26.5981" x2="143.818" y2="23.9149" gradientUnits="userSpaceOnUse">
<stop stop-color="#8A8A8A"/>
<stop offset="0.296863" stop-color="#C5C5C5"/>
<stop offset="0.479166" stop-color="#D4D4D4"/>
<stop offset="0.750015" stop-color="#BDB2B2"/>
<stop offset="1" stop-color="#777777"/>
</linearGradient>
<linearGradient id="paint2_linear_207_26562" x1="111.773" y1="19.3182" x2="113.365" y2="24.2909" gradientUnits="userSpaceOnUse">
<stop stop-color="#DDDDDD"/>
<stop offset="0.273661" stop-color="#CACACA"/>
<stop offset="0.679935" stop-color="#8C8C8C"/>
<stop offset="1" stop-color="#575656"/>
</linearGradient>
<linearGradient id="paint3_linear_207_26562" x1="112.035" y1="26.6008" x2="143.822" y2="23.9175" gradientUnits="userSpaceOnUse">
<stop stop-color="#8A8A8A"/>
<stop offset="0.296863" stop-color="#C5C5C5"/>
<stop offset="0.479166" stop-color="#D4D4D4"/>
<stop offset="0.750015" stop-color="#BDB2B2"/>
<stop offset="1" stop-color="#777777"/>
</linearGradient>
<linearGradient id="paint4_linear_207_26562" x1="117.974" y1="3.55829" x2="124.051" y2="20.1458" gradientUnits="userSpaceOnUse">
<stop stop-color="#DDDDDD"/>
<stop offset="0.273661" stop-color="#CACACA"/>
<stop offset="0.679935" stop-color="#8C8C8C"/>
<stop offset="1" stop-color="#575656"/>
</linearGradient>
<linearGradient id="paint5_linear_207_26562" x1="116.093" y1="53.9985" x2="116.601" y2="46.1518" gradientUnits="userSpaceOnUse">
<stop stop-color="#525252"/>
<stop offset="0.1317" stop-color="#5F5F5F"/>
<stop offset="0.3569" stop-color="#6E6E6E"/>
<stop offset="0.6186" stop-color="#777777"/>
<stop offset="1" stop-color="#7A7A7A"/>
</linearGradient>
<linearGradient id="paint6_linear_207_26562" x1="119.734" y1="53.9985" x2="120.242" y2="46.1518" gradientUnits="userSpaceOnUse">
<stop stop-color="#525252"/>
<stop offset="0.1317" stop-color="#5F5F5F"/>
<stop offset="0.3569" stop-color="#6E6E6E"/>
<stop offset="0.6186" stop-color="#777777"/>
<stop offset="1" stop-color="#7A7A7A"/>
</linearGradient>
<clipPath id="clip0_207_26562">
<rect width="256" height="60" fill="white"/>
</clipPath>
</defs>
</svg>
