<svg width="256" height="60" viewBox="0 0 256 60" fill="none" xmlns="http://www.w3.org/2000/svg">
<g clip-path="url(#clip0_207_26561)">
<path d="M139.36 11.6621L140.105 12.0271C140.849 11.1761 141.26 10.2405 141.26 9.25791C141.26 7.98434 140.569 6.78917 139.36 5.75586V11.6621Z" fill="url(#paint0_linear_207_26561)"/>
<path fill-rule="evenodd" clip-rule="evenodd" d="M140.096 55.6793V12.0373C140.845 11.1838 141.259 10.2445 141.259 9.25821C141.259 9.18227 141.256 9.10661 141.251 9.03125H141.259L141.259 52.6772L141.259 52.8546L141.259 52.9002C141.259 53.8865 140.845 54.8258 140.096 55.6793ZM141.259 13.4765L141.259 13.4573C141.259 13.3941 141.256 13.3312 141.252 13.2684C141.256 13.3376 141.258 13.4069 141.259 13.4765Z" fill="url(#paint1_linear_207_26561)"/>
<path d="M139.36 55.2345L140.098 55.674V12.0193L139.36 11.6592V55.2345Z" fill="#323232"/>
<path d="M108.67 44.9387L112.446 43.6396L119.542 46.7101L115.6 48.2573L108.67 44.9387Z" fill="#FF9E9E"/>
<path d="M108.68 44.9391V1.29785L115.593 4.59964V48.2564L108.68 44.9391Z" fill="#535353"/>
<path fill-rule="evenodd" clip-rule="evenodd" d="M136.521 14.4886C133.92 15.6482 130.452 16.3561 126.643 16.3561C118.572 16.3561 112.03 13.1783 112.03 9.25822C112.03 9.18228 112.032 9.10662 112.037 9.03125H112.03V9.25822L112.03 13.4575V13.474L112.03 13.4916L112.03 13.5091V52.8566L112.03 52.887L112.03 52.9022C112.03 56.8222 118.572 60.0001 126.643 60.0001C130.452 60.0001 133.92 59.2922 136.521 58.1326V14.4886ZM112.03 13.4575C112.03 13.3956 112.032 13.334 112.037 13.2725C112.033 13.3379 112.03 13.4035 112.03 13.4692L112.03 13.4575Z" fill="url(#paint2_linear_207_26561)"/>
<path d="M116.587 1.79087L112.447 -0.00390625L108.67 1.29511L115.6 4.61384C113.38 5.85844 112.035 7.48187 112.035 9.25845C112.035 13.1783 118.578 16.3567 126.649 16.3567C130.458 16.3567 133.927 15.6487 136.529 14.4888L132.154 12.4563L132.211 12.4072C130.619 12.8479 128.708 13.1044 126.652 13.1044C121.115 13.1044 116.624 11.2421 116.594 8.94007H116.587V1.79087Z" fill="url(#paint3_linear_207_26561)"/>
<path d="M128.65 53.9985H125.008V53.5904C125.239 53.5836 125.423 53.5632 125.559 53.5292C125.701 53.4884 125.81 53.417 125.885 53.315C125.96 53.213 126.011 53.0702 126.038 52.8865C126.065 52.6961 126.079 52.4411 126.079 52.1214V48.0206C126.079 47.7349 126.065 47.5003 126.038 47.3167C126.018 47.1263 125.974 46.9767 125.906 46.8678C125.838 46.759 125.739 46.6842 125.61 46.6434C125.487 46.5958 125.321 46.5652 125.11 46.5516V46.1436H128.548V46.5516C128.337 46.5652 128.167 46.5958 128.038 46.6434C127.915 46.6842 127.82 46.759 127.752 46.8678C127.684 46.9767 127.636 47.1263 127.609 47.3167C127.589 47.5003 127.579 47.7349 127.579 48.0206V52.1214C127.579 52.4411 127.589 52.6961 127.609 52.8865C127.636 53.0702 127.687 53.213 127.762 53.315C127.844 53.417 127.953 53.4884 128.089 53.5292C128.231 53.5632 128.418 53.5836 128.65 53.5904V53.9985Z" fill="url(#paint4_linear_207_26561)"/>
<path d="M132.292 53.9985H128.65V53.5904C128.881 53.5836 129.065 53.5632 129.201 53.5292C129.344 53.4884 129.452 53.417 129.527 53.315C129.602 53.213 129.653 53.0702 129.68 52.8865C129.707 52.6961 129.721 52.4411 129.721 52.1214V48.0206C129.721 47.7349 129.707 47.5003 129.68 47.3167C129.66 47.1263 129.616 46.9767 129.548 46.8678C129.48 46.759 129.381 46.6842 129.252 46.6434C129.129 46.5958 128.963 46.5652 128.752 46.5516V46.1436H132.19V46.5516C131.979 46.5652 131.809 46.5958 131.68 46.6434C131.557 46.6842 131.462 46.759 131.394 46.8678C131.326 46.9767 131.278 47.1263 131.251 47.3167C131.231 47.5003 131.221 47.7349 131.221 48.0206V52.1214C131.221 52.4411 131.231 52.6961 131.251 52.8865C131.278 53.0702 131.329 53.213 131.404 53.315C131.486 53.417 131.595 53.4884 131.731 53.5292C131.873 53.5632 132.06 53.5836 132.292 53.5904V53.9985Z" fill="url(#paint5_linear_207_26561)"/>
<path d="M125.008 53.9985H121.366V53.5904C121.597 53.5836 121.781 53.5632 121.917 53.5292C122.06 53.4884 122.169 53.417 122.244 53.315C122.318 53.213 122.369 53.0702 122.397 52.8865C122.424 52.6961 122.437 52.4411 122.437 52.1214V48.0206C122.437 47.7349 122.424 47.5003 122.397 47.3167C122.376 47.1263 122.332 46.9767 122.264 46.8678C122.196 46.759 122.097 46.6842 121.968 46.6434C121.846 46.5958 121.679 46.5652 121.468 46.5516V46.1436H124.906V46.5516C124.695 46.5652 124.525 46.5958 124.396 46.6434C124.274 46.6842 124.178 46.759 124.11 46.8678C124.042 46.9767 123.995 47.1263 123.968 47.3167C123.947 47.5003 123.937 47.7349 123.937 48.0206V52.1214C123.937 52.4411 123.947 52.6961 123.968 52.8865C123.995 53.0702 124.046 53.213 124.121 53.315C124.202 53.417 124.311 53.4884 124.447 53.5292C124.59 53.5632 124.777 53.5836 125.008 53.5904V53.9985Z" fill="url(#paint6_linear_207_26561)"/>
</g>
<defs>
<linearGradient id="paint0_linear_207_26561" x1="117.972" y1="3.55801" x2="124.049" y2="20.1448" gradientUnits="userSpaceOnUse">
<stop stop-color="#DDDDDD"/>
<stop offset="0.273661" stop-color="#CACACA"/>
<stop offset="0.679935" stop-color="#8C8C8C"/>
<stop offset="1" stop-color="#575656"/>
</linearGradient>
<linearGradient id="paint1_linear_207_26561" x1="112.034" y1="26.6" x2="143.82" y2="23.9168" gradientUnits="userSpaceOnUse">
<stop stop-color="#8A8A8A"/>
<stop offset="0.296863" stop-color="#C5C5C5"/>
<stop offset="0.479166" stop-color="#D4D4D4"/>
<stop offset="0.750015" stop-color="#BDB2B2"/>
<stop offset="1" stop-color="#777777"/>
</linearGradient>
<linearGradient id="paint2_linear_207_26561" x1="112.03" y1="26.6008" x2="143.817" y2="23.9175" gradientUnits="userSpaceOnUse">
<stop stop-color="#8A8A8A"/>
<stop offset="0.296863" stop-color="#C5C5C5"/>
<stop offset="0.479166" stop-color="#D4D4D4"/>
<stop offset="0.750015" stop-color="#BDB2B2"/>
<stop offset="1" stop-color="#777777"/>
</linearGradient>
<linearGradient id="paint3_linear_207_26561" x1="117.974" y1="3.55829" x2="124.051" y2="20.1458" gradientUnits="userSpaceOnUse">
<stop stop-color="#DDDDDD"/>
<stop offset="0.273661" stop-color="#CACACA"/>
<stop offset="0.679935" stop-color="#8C8C8C"/>
<stop offset="1" stop-color="#575656"/>
</linearGradient>
<linearGradient id="paint4_linear_207_26561" x1="118.067" y1="53.9985" x2="118.575" y2="46.1518" gradientUnits="userSpaceOnUse">
<stop stop-color="#525252"/>
<stop offset="0.1317" stop-color="#5F5F5F"/>
<stop offset="0.3569" stop-color="#6E6E6E"/>
<stop offset="0.6186" stop-color="#777777"/>
<stop offset="1" stop-color="#7A7A7A"/>
</linearGradient>
<linearGradient id="paint5_linear_207_26561" x1="121.709" y1="53.9985" x2="122.217" y2="46.1518" gradientUnits="userSpaceOnUse">
<stop stop-color="#525252"/>
<stop offset="0.1317" stop-color="#5F5F5F"/>
<stop offset="0.3569" stop-color="#6E6E6E"/>
<stop offset="0.6186" stop-color="#777777"/>
<stop offset="1" stop-color="#7A7A7A"/>
</linearGradient>
<linearGradient id="paint6_linear_207_26561" x1="114.426" y1="53.9985" x2="114.934" y2="46.1518" gradientUnits="userSpaceOnUse">
<stop stop-color="#525252"/>
<stop offset="0.1317" stop-color="#5F5F5F"/>
<stop offset="0.3569" stop-color="#6E6E6E"/>
<stop offset="0.6186" stop-color="#777777"/>
<stop offset="1" stop-color="#7A7A7A"/>
</linearGradient>
<clipPath id="clip0_207_26561">
<rect width="256" height="60" fill="white"/>
</clipPath>
</defs>
</svg>
