<svg width="88" height="64" viewBox="0 0 88 64" fill="none" xmlns="http://www.w3.org/2000/svg">
<path d="M0 0H82C85.3137 0 88 2.68629 88 6V58C88 61.3137 85.3137 64 82 64H0V0Z" fill="#868686"/>
<rect x="2.5" y="2.5" width="83" height="59" rx="4.5" fill="url(#paint0_linear_396_128673)" stroke="url(#paint1_linear_396_128673)"/>
<path d="M29.8784 21.3034L33.1507 20.1777L39.2998 22.8385L35.9219 24.3566L29.8784 21.3034Z" fill="url(#paint2_linear_396_128673)"/>
<path d="M29.8784 35.0398L33.1507 33.9141L39.2998 36.5749L36.0831 38.3146L29.8784 35.0398Z" fill="url(#paint3_linear_396_128673)"/>
<path d="M29.8872 35.0409V44.948L35.8777 47.8228V38.1119L29.8872 35.0409Z" fill="#535353"/>
<path d="M29.8872 31.467L35.8777 34.5654V24.3172L29.8872 21.3059V31.467Z" fill="#535353"/>
<path d="M29.8872 17.6723L35.8777 20.7708V9.98931L29.8872 7.12793V17.6723Z" fill="#535353"/>
<path d="M54.1713 14.9826V14.9809L53.7945 14.7964C54.0146 14.4978 54.1445 14.1828 54.1713 13.857V13.6046C54.0115 11.6592 50.1727 10.1025 45.4606 10.1025C40.6469 10.1025 36.7446 11.727 36.7446 13.7308C36.7446 15.7346 40.6469 17.359 45.4606 17.359C47.2417 17.359 48.8484 17.1788 50.2285 16.7971L53.7953 18.4545V14.7991L54.1713 14.9826Z" fill="url(#paint4_linear_396_128673)"/>
<path d="M57.1154 16.4202L53.7954 14.7998V52.2762L57.1154 54.2537V16.4202Z" fill="#323232"/>
<path fill-rule="evenodd" clip-rule="evenodd" d="M54.019 18.5595C51.7649 19.5644 48.759 20.1779 45.4581 20.1779C38.4642 20.1779 32.7944 17.4239 32.7944 14.0268C32.7944 13.961 32.7966 13.8954 32.8008 13.8301H32.7944V14.0268L32.7945 17.6659V17.6802L32.7944 17.6955L32.7945 17.7107V51.8097L32.7944 51.836L32.7945 51.8492C32.7945 55.2464 38.4642 58.0003 45.4582 58.0003C48.759 58.0003 51.7649 57.3869 54.019 56.3819V18.5595ZM32.7945 17.6659C32.7945 17.6123 32.7964 17.5589 32.8004 17.5056C32.7968 17.5623 32.7949 17.6191 32.7945 17.6761L32.7945 17.6659Z" fill="url(#paint5_linear_396_128673)"/>
<path fill-rule="evenodd" clip-rule="evenodd" d="M57.1142 16.4353V54.2577C57.7629 53.518 58.1218 52.704 58.1218 51.8492L58.1216 51.8097L58.122 51.656L58.1219 13.8301H58.1154C58.1197 13.8954 58.1218 13.961 58.1218 14.0268C58.1218 14.8815 57.7629 15.6956 57.1142 16.4353ZM58.1218 17.6659L58.1218 17.6826C58.1215 17.6223 58.1195 17.5622 58.1157 17.5023C58.1198 17.5566 58.1218 17.6112 58.1218 17.6659Z" fill="url(#paint6_linear_396_128673)"/>
<path d="M47.1642 52.799H44.0083V52.4454C44.2087 52.4395 44.3678 52.4218 44.4857 52.3923C44.6094 52.357 44.7037 52.2951 44.7685 52.2067C44.8334 52.1183 44.8776 51.9945 44.9011 51.8354C44.9247 51.6704 44.9365 51.4494 44.9365 51.1724V47.6187C44.9365 47.3712 44.9247 47.1679 44.9011 47.0088C44.8835 46.8438 44.8452 46.7141 44.7862 46.6198C44.7273 46.5255 44.6418 46.4607 44.5299 46.4253C44.4238 46.3841 44.2794 46.3576 44.0967 46.3458V45.9922H47.0758V46.3458C46.8931 46.3576 46.7458 46.3841 46.6338 46.4253C46.5277 46.4607 46.4452 46.5255 46.3863 46.6198C46.3273 46.7141 46.2861 46.8438 46.2625 47.0088C46.2448 47.1679 46.236 47.3712 46.236 47.6187V51.1724C46.236 51.4494 46.2448 51.6704 46.2625 51.8354C46.2861 51.9945 46.3303 52.1183 46.3951 52.2067C46.4658 52.2951 46.5601 52.357 46.678 52.3923C46.8017 52.4218 46.9638 52.4395 47.1642 52.4454V52.799Z" fill="url(#paint7_linear_396_128673)"/>
<path d="M33.1507 6L29.8784 7.12569L35.8835 10.0016C33.9598 11.0802 32.7945 12.487 32.7945 14.0265C32.7945 17.4234 38.4643 20.1777 45.4583 20.1777C48.7591 20.1777 51.7654 19.5642 54.0197 18.559L50.2288 16.7977L50.2782 16.7552C48.8982 17.137 47.2422 17.3594 45.4606 17.3594C40.647 17.3594 36.7449 15.7348 36.7449 13.7308C36.7449 11.7274 40.647 10.1029 45.4606 10.1029C50.2747 10.1029 54.1768 11.7274 54.1768 13.7314C54.1768 14.1022 54.043 14.4596 53.795 14.7966L57.1214 16.4263C57.7658 15.6889 58.122 14.8781 58.122 14.0265C58.122 10.6291 52.4522 7.87538 45.4583 7.87538C43.2168 7.87538 41.1115 8.15826 39.285 8.65416L33.1507 6Z" fill="url(#paint8_linear_396_128673)"/>
<defs>
<linearGradient id="paint0_linear_396_128673" x1="44" y1="2" x2="44" y2="62" gradientUnits="userSpaceOnUse">
<stop stop-color="#F0F0F0"/>
<stop offset="1" stop-color="#A0A0A0"/>
</linearGradient>
<linearGradient id="paint1_linear_396_128673" x1="44" y1="2" x2="44" y2="62" gradientUnits="userSpaceOnUse">
<stop stop-color="#A1A1A1"/>
<stop offset="1" stop-color="#FEFEFE"/>
</linearGradient>
<linearGradient id="paint2_linear_396_128673" x1="32.5678" y1="21.0876" x2="33.9759" y2="25.4373" gradientUnits="userSpaceOnUse">
<stop stop-color="#DDDDDD"/>
<stop offset="0.273661" stop-color="#CACACA"/>
<stop offset="0.679935" stop-color="#8C8C8C"/>
<stop offset="1" stop-color="#575656"/>
</linearGradient>
<linearGradient id="paint3_linear_396_128673" x1="32.5678" y1="34.8722" x2="34.1133" y2="39.4058" gradientUnits="userSpaceOnUse">
<stop stop-color="#DDDDDD"/>
<stop offset="0.273661" stop-color="#CACACA"/>
<stop offset="0.679935" stop-color="#8C8C8C"/>
<stop offset="1" stop-color="#575656"/>
</linearGradient>
<linearGradient id="paint4_linear_396_128673" x1="37.2683" y1="15.1345" x2="53.4186" y2="12.1456" gradientUnits="userSpaceOnUse">
<stop stop-color="#3A3A3A"/>
<stop offset="0.25" stop-color="#6E6A6A"/>
<stop offset="0.5" stop-color="#8A8585"/>
<stop offset="0.75" stop-color="#777373"/>
<stop offset="1" stop-color="#3D3D3D"/>
</linearGradient>
<linearGradient id="paint5_linear_396_128673" x1="32.7944" y1="29.0561" x2="60.3418" y2="26.7307" gradientUnits="userSpaceOnUse">
<stop stop-color="#8A8A8A"/>
<stop offset="0.296863" stop-color="#C5C5C5"/>
<stop offset="0.479166" stop-color="#D4D4D4"/>
<stop offset="0.750015" stop-color="#BDB2B2"/>
<stop offset="1" stop-color="#777777"/>
</linearGradient>
<linearGradient id="paint6_linear_396_128673" x1="32.7944" y1="29.0561" x2="60.3418" y2="26.7307" gradientUnits="userSpaceOnUse">
<stop stop-color="#8A8A8A"/>
<stop offset="0.296863" stop-color="#C5C5C5"/>
<stop offset="0.479166" stop-color="#D4D4D4"/>
<stop offset="0.750015" stop-color="#BDB2B2"/>
<stop offset="1" stop-color="#777777"/>
</linearGradient>
<linearGradient id="paint7_linear_396_128673" x1="37.9939" y1="52.799" x2="38.4341" y2="45.9994" gradientUnits="userSpaceOnUse">
<stop stop-color="#525252"/>
<stop offset="0.1317" stop-color="#5F5F5F"/>
<stop offset="0.3569" stop-color="#6E6E6E"/>
<stop offset="0.6186" stop-color="#777777"/>
<stop offset="1" stop-color="#7A7A7A"/>
</linearGradient>
<linearGradient id="paint8_linear_396_128673" x1="37.9407" y1="9.08691" x2="43.2068" y2="23.4612" gradientUnits="userSpaceOnUse">
<stop stop-color="#DDDDDD"/>
<stop offset="0.273661" stop-color="#CACACA"/>
<stop offset="0.679935" stop-color="#8C8C8C"/>
<stop offset="1" stop-color="#575656"/>
</linearGradient>
</defs>
</svg>
