<svg width="256" height="35" viewBox="0 0 256 35" fill="none" xmlns="http://www.w3.org/2000/svg">
<ellipse cx="126.647" cy="27.3316" rx="14.6135" ry="7.09818" fill="#D9D9D9"/>
<path d="M112.033 23.0982C112.033 19.178 118.576 16 126.647 16C134.718 16 141.26 19.178 141.26 23.0982C141.26 27.0184 134.718 30.1964 126.647 30.1964C118.576 30.1964 112.033 27.0184 112.033 23.0982Z" fill="url(#paint0_linear_207_26563)"/>
<path d="M141.26 22.8707H141.253C141.258 22.9461 141.26 23.0217 141.26 23.0977C141.26 27.0179 134.718 30.1959 126.647 30.1959C118.576 30.1959 112.033 26.7039 112.033 22.7837C112.033 22.7078 112.036 22.9461 112.041 22.8707H112.033L112.033 22.7837L112.033 27.1083H112.04C112.036 27.1823 112.033 27.2566 112.033 27.3312C112.033 31.2514 118.576 34.4294 126.647 34.4294C134.718 34.4294 141.26 31.2514 141.26 27.3312C141.26 27.2566 141.258 27.1823 141.253 27.1083H141.26V22.8707Z" fill="url(#paint1_linear_207_26563)"/>
<defs>
<linearGradient id="paint0_linear_207_26563" x1="117.972" y1="17.3981" x2="124.049" y2="33.9856" gradientUnits="userSpaceOnUse">
<stop stop-color="#CFCFCF"/>
<stop offset="1" stop-color="#2D2D2D"/>
</linearGradient>
<linearGradient id="paint1_linear_207_26563" x1="112.033" y1="26.7882" x2="140.212" y2="16.3903" gradientUnits="userSpaceOnUse">
<stop stop-color="#8A8A8A"/>
<stop offset="0.296863" stop-color="#C5C5C5"/>
<stop offset="0.479166" stop-color="#D4D4D4"/>
<stop offset="0.750015" stop-color="#BDB2B2"/>
<stop offset="1" stop-color="#777777"/>
</linearGradient>
</defs>
</svg>
