<svg width="88" height="64" viewBox="0 0 88 64" fill="none" xmlns="http://www.w3.org/2000/svg">
<path d="M0 0H82C85.3137 0 88 2.68629 88 6V58C88 61.3137 85.3137 64 82 64H0V0Z" fill="#868686"/>
<rect x="2.5" y="2.5" width="83" height="59" rx="4.5" fill="url(#paint0_linear_396_128713)" stroke="url(#paint1_linear_396_128713)"/>
<path d="M29.8784 37.3386L33.1507 36.2129L39.2998 38.8737L35.9771 40.3536L29.8784 37.3386Z" fill="url(#paint2_linear_396_128713)"/>
<path d="M29.8784 28.6013L33.1507 27.4756L39.2998 30.1364L36.0612 31.6604L29.8784 28.6013Z" fill="url(#paint3_linear_396_128713)"/>
<path d="M29.8872 37.3474V44.948L35.8777 47.8228V40.2955L29.8872 37.3474Z" fill="#535353"/>
<path d="M29.8872 33.5676L35.8777 36.7367V31.5606L29.8872 28.6062V33.5676Z" fill="#535353"/>
<path d="M29.8872 24.8327L35.8777 28.0018V9.98931L29.8872 7.12793V24.8327Z" fill="#535353"/>
<path d="M54.1713 14.9826V14.9809L53.7945 14.7964C54.0145 14.4978 54.1445 14.1828 54.1713 13.857V13.6046C54.0115 11.6592 50.1727 10.1025 45.4606 10.1025C40.6469 10.1025 36.7446 11.727 36.7446 13.7308C36.7446 15.7346 40.6469 17.359 45.4606 17.359C47.2417 17.359 48.8484 17.1788 50.2285 16.7971L53.7953 18.4545V14.7991L54.1713 14.9826Z" fill="url(#paint4_linear_396_128713)"/>
<path d="M57.1154 16.4202L53.7954 14.7998V52.2762L57.1154 54.2537V16.4202Z" fill="#323232"/>
<path fill-rule="evenodd" clip-rule="evenodd" d="M54.019 18.5595C51.7649 19.5644 48.759 20.1779 45.4581 20.1779C38.4642 20.1779 32.7944 17.4239 32.7944 14.0268C32.7944 13.961 32.7966 13.8954 32.8008 13.8301H32.7944V14.0268L32.7945 17.6659V17.6802L32.7944 17.6955L32.7945 17.7107V51.8097L32.7944 51.836L32.7945 51.8492C32.7945 55.2464 38.4642 58.0003 45.4582 58.0003C48.759 58.0003 51.7649 57.3869 54.019 56.3819V18.5595ZM32.7945 17.6659C32.7945 17.6123 32.7964 17.5589 32.8004 17.5056C32.7968 17.5623 32.7949 17.6191 32.7945 17.6761L32.7945 17.6659Z" fill="url(#paint5_linear_396_128713)"/>
<path fill-rule="evenodd" clip-rule="evenodd" d="M57.1142 16.4353V54.2577C57.7629 53.518 58.1218 52.704 58.1218 51.8492L58.1216 51.8097L58.122 51.656L58.1219 13.8301H58.1154C58.1197 13.8954 58.1218 13.961 58.1218 14.0268C58.1218 14.8815 57.7629 15.6956 57.1142 16.4353ZM58.1218 17.6659L58.1218 17.6826C58.1215 17.6223 58.1195 17.5622 58.1157 17.5023C58.1198 17.5566 58.1218 17.6112 58.1218 17.6659Z" fill="url(#paint6_linear_396_128713)"/>
<path d="M33.1507 6L29.8784 7.12569L35.8835 10.0016C33.9598 11.0802 32.7945 12.487 32.7945 14.0265C32.7945 17.4234 38.4643 20.1777 45.4582 20.1777C48.7591 20.1777 51.7654 19.5642 54.0197 18.559L50.2288 16.7977L50.2782 16.7552C48.8982 17.137 47.2422 17.3594 45.4606 17.3594C40.647 17.3594 36.7449 15.7348 36.7449 13.7308C36.7449 11.7274 40.647 10.1029 45.4606 10.1029C50.2747 10.1029 54.1768 11.7274 54.1768 13.7314C54.1768 14.1022 54.043 14.4596 53.795 14.7966L57.1214 16.4263C57.7658 15.6889 58.122 14.8781 58.122 14.0265C58.122 10.6291 52.4522 7.87538 45.4582 7.87538C43.2168 7.87538 41.1115 8.15825 39.285 8.65416L33.1507 6Z" fill="url(#paint7_linear_396_128713)"/>
<path d="M44.0475 52.799H40.8916V52.4454C41.092 52.4395 41.2511 52.4218 41.369 52.3923C41.4927 52.357 41.587 52.2951 41.6518 52.2067C41.7167 52.1183 41.7609 51.9945 41.7844 51.8354C41.808 51.6704 41.8198 51.4494 41.8198 51.1724V47.6187C41.8198 47.3712 41.808 47.1679 41.7844 47.0088C41.7668 46.8438 41.7285 46.7141 41.6695 46.6198C41.6106 46.5255 41.5251 46.4607 41.4132 46.4253C41.3071 46.3841 41.1627 46.3576 40.98 46.3458V45.9922H43.9591V46.3458C43.7764 46.3576 43.6291 46.3841 43.5171 46.4253C43.411 46.4607 43.3285 46.5255 43.2696 46.6198C43.2106 46.7141 43.1694 46.8438 43.1458 47.0088C43.1281 47.1679 43.1193 47.3712 43.1193 47.6187V51.1724C43.1193 51.4494 43.1281 51.6704 43.1458 51.8354C43.1694 51.9945 43.2136 52.1183 43.2784 52.2067C43.3491 52.2951 43.4434 52.357 43.5613 52.3923C43.685 52.4218 43.8471 52.4395 44.0475 52.4454V52.799Z" fill="url(#paint8_linear_396_128713)"/>
<path d="M48.1933 51.2785L49.3425 48.3348C49.4545 48.046 49.5429 47.8103 49.6077 47.6276C49.6784 47.4449 49.7315 47.2946 49.7668 47.1767C49.8022 47.0589 49.8258 46.9646 49.8376 46.8939C49.8493 46.8231 49.8552 46.7554 49.8552 46.6905C49.8552 46.5491 49.8022 46.4578 49.6961 46.4165C49.59 46.3694 49.3779 46.3458 49.0596 46.3458V45.9922H51.5702V46.3458C51.0811 46.3458 50.7422 46.5845 50.5536 47.0618L48.2287 52.8874H47.5745L45.4618 47.7248C45.3439 47.4478 45.2378 47.2209 45.1435 47.0441C45.0492 46.8673 44.949 46.7289 44.843 46.6287C44.7369 46.5226 44.619 46.4519 44.4894 46.4165C44.3656 46.3753 44.2183 46.3546 44.0474 46.3546V45.9922H47.3889V46.3546C47.2357 46.3605 47.106 46.3694 46.9999 46.3811C46.8997 46.3929 46.8202 46.4136 46.7612 46.443C46.7023 46.4666 46.6611 46.502 46.6375 46.5491C46.6139 46.5904 46.6021 46.6434 46.6021 46.7082C46.6021 46.7907 46.6169 46.888 46.6463 46.9999C46.6758 47.1119 46.72 47.2475 46.7789 47.4066L48.1933 51.2785Z" fill="url(#paint9_linear_396_128713)"/>
<defs>
<linearGradient id="paint0_linear_396_128713" x1="44" y1="2" x2="44" y2="62" gradientUnits="userSpaceOnUse">
<stop stop-color="#F0F0F0"/>
<stop offset="1" stop-color="#A0A0A0"/>
</linearGradient>
<linearGradient id="paint1_linear_396_128713" x1="44" y1="2" x2="44" y2="62" gradientUnits="userSpaceOnUse">
<stop stop-color="#A1A1A1"/>
<stop offset="1" stop-color="#FEFEFE"/>
</linearGradient>
<linearGradient id="paint2_linear_396_128713" x1="32.5678" y1="37.1145" x2="33.9527" y2="41.4319" gradientUnits="userSpaceOnUse">
<stop stop-color="#DDDDDD"/>
<stop offset="0.273661" stop-color="#CACACA"/>
<stop offset="0.679935" stop-color="#8C8C8C"/>
<stop offset="1" stop-color="#575656"/>
</linearGradient>
<linearGradient id="paint3_linear_396_128713" x1="32.5678" y1="28.3868" x2="33.9795" y2="32.7415" gradientUnits="userSpaceOnUse">
<stop stop-color="#DDDDDD"/>
<stop offset="0.273661" stop-color="#CACACA"/>
<stop offset="0.679935" stop-color="#8C8C8C"/>
<stop offset="1" stop-color="#575656"/>
</linearGradient>
<linearGradient id="paint4_linear_396_128713" x1="37.2683" y1="15.1345" x2="53.4186" y2="12.1456" gradientUnits="userSpaceOnUse">
<stop stop-color="#3A3A3A"/>
<stop offset="0.25" stop-color="#6E6A6A"/>
<stop offset="0.5" stop-color="#8A8585"/>
<stop offset="0.75" stop-color="#777373"/>
<stop offset="1" stop-color="#3D3D3D"/>
</linearGradient>
<linearGradient id="paint5_linear_396_128713" x1="32.7944" y1="29.0561" x2="60.3418" y2="26.7307" gradientUnits="userSpaceOnUse">
<stop stop-color="#8A8A8A"/>
<stop offset="0.296863" stop-color="#C5C5C5"/>
<stop offset="0.479166" stop-color="#D4D4D4"/>
<stop offset="0.750015" stop-color="#BDB2B2"/>
<stop offset="1" stop-color="#777777"/>
</linearGradient>
<linearGradient id="paint6_linear_396_128713" x1="32.7944" y1="29.0561" x2="60.3418" y2="26.7307" gradientUnits="userSpaceOnUse">
<stop stop-color="#8A8A8A"/>
<stop offset="0.296863" stop-color="#C5C5C5"/>
<stop offset="0.479166" stop-color="#D4D4D4"/>
<stop offset="0.750015" stop-color="#BDB2B2"/>
<stop offset="1" stop-color="#777777"/>
</linearGradient>
<linearGradient id="paint7_linear_396_128713" x1="37.9407" y1="9.0869" x2="43.2068" y2="23.4612" gradientUnits="userSpaceOnUse">
<stop stop-color="#DDDDDD"/>
<stop offset="0.273661" stop-color="#CACACA"/>
<stop offset="0.679935" stop-color="#8C8C8C"/>
<stop offset="1" stop-color="#575656"/>
</linearGradient>
<linearGradient id="paint8_linear_396_128713" x1="34.8772" y1="52.799" x2="35.3174" y2="45.9994" gradientUnits="userSpaceOnUse">
<stop stop-color="#525252"/>
<stop offset="0.1317" stop-color="#5F5F5F"/>
<stop offset="0.3569" stop-color="#6E6E6E"/>
<stop offset="0.6186" stop-color="#777777"/>
<stop offset="1" stop-color="#7A7A7A"/>
</linearGradient>
<linearGradient id="paint9_linear_396_128713" x1="29.7105" y1="52.8874" x2="29.9006" y2="45.9758" gradientUnits="userSpaceOnUse">
<stop stop-color="#525252"/>
<stop offset="0.1317" stop-color="#5F5F5F"/>
<stop offset="0.3569" stop-color="#6E6E6E"/>
<stop offset="0.6186" stop-color="#777777"/>
<stop offset="1" stop-color="#7A7A7A"/>
</linearGradient>
</defs>
</svg>
