<svg width="88" height="64" viewBox="0 0 88 64" fill="none" xmlns="http://www.w3.org/2000/svg">
<path d="M0 0H82C85.3115 0 88 2.6885 88 6V58C88 61.3115 85.3115 64 82 64H0V0Z" fill="url(#paint0_linear_216_38753)"/>
<path d="M82 0.5C85.0327 0.5 87.5 2.9673 87.5 6V58C87.5 61.0327 85.0327 63.5 82 63.5H0.5V0.5H82ZM82 0H0V64H82C85.3137 64 88 61.3135 88 58V6C88 2.6865 85.3137 0 82 0Z" fill="#747474"/>
<path d="M81.3809 62.8201H1.62207V1.17969H81.381C84.1405 1.17969 86.3776 3.41669 86.3776 6.17629V57.8235C86.3776 60.583 84.1405 62.8201 81.3809 62.8201Z" fill="url(#paint1_linear_216_38753)"/>
<path d="M80.0011 4H7.9989C5.79037 4 4 5.79037 4 7.9989V56.0011C4 58.2096 5.79037 60 7.9989 60H80.0011C82.2096 60 84 58.2096 84 56.0011V7.9989C84 5.79037 82.2096 4 80.0011 4Z" fill="#373737"/>
<path d="M41.8125 51.5295C37.9756 51.5295 33.8047 50.6193 29.4932 48.5188C22.9942 45.3528 11.1299 45.4094 11.0088 45.3938L10.9658 39.3938C11.5088 39.3801 24.3535 39.3401 32.1201 43.1243C43.7881 48.8098 52.0547 43.552 54.7666 38.6311C55.8184 36.72 56.1621 34.842 55.584 34.1663C55.2822 33.8128 52.1289 30.9143 34.3692 37.3587C26.0938 40.3597 21.6485 36.973 20.1221 35.3724C17.501 32.6302 16.6856 28.5111 18.0928 25.1244C20.0401 20.4349 23.6768 16.9242 28.6094 14.973C33.9981 12.8402 43.4112 11.6468 57.6514 18.0746C58.3096 18.3725 58.958 18.685 59.6202 19.0043C63.7677 21.0063 68.4688 23.2748 81.296 23.2748V29.2748C67.0958 29.2748 61.505 26.5756 57.0118 24.4076C56.3966 24.1107 55.795 23.8197 55.1827 23.5433C45.5665 19.2035 36.9112 18.1419 30.8165 20.5521C27.4278 21.8929 24.9444 24.2689 23.6339 27.4251C23.211 28.4427 23.3595 30.0755 24.4601 31.2278C25.9679 32.8069 28.8341 32.9856 32.3224 31.718C47.4523 26.2287 56.2931 25.7659 60.1427 30.2649C62.4933 33.012 62.4503 37.1165 60.0226 41.5256C56.8722 47.2453 50.1319 51.5295 41.8125 51.5295Z" fill="url(#paint2_linear_216_38753)"/>
<defs>
<linearGradient id="paint0_linear_216_38753" x1="0" y1="32" x2="88" y2="32" gradientUnits="userSpaceOnUse">
<stop stop-color="#747474"/>
<stop offset="0.1673" stop-color="#9A9A9A"/>
<stop offset="0.3513" stop-color="#969696"/>
<stop offset="0.4994" stop-color="#8C8C8C"/>
<stop offset="0.635" stop-color="#7B7B7B"/>
<stop offset="0.7624" stop-color="#646464"/>
<stop offset="0.8728" stop-color="#494949"/>
<stop offset="0.91" stop-color="#4F4F4F"/>
<stop offset="0.9638" stop-color="#636363"/>
<stop offset="1" stop-color="#747474"/>
</linearGradient>
<linearGradient id="paint1_linear_216_38753" x1="86.3775" y1="31.9999" x2="1.62207" y2="31.9999" gradientUnits="userSpaceOnUse">
<stop stop-color="#6F6F6F"/>
<stop offset="0.1673" stop-color="#9A9A9A"/>
<stop offset="0.3513" stop-color="#969696"/>
<stop offset="0.4994" stop-color="#8C8C8C"/>
<stop offset="0.635" stop-color="#7B7B7B"/>
<stop offset="0.7624" stop-color="#646464"/>
<stop offset="0.8728" stop-color="#494949"/>
<stop offset="0.91" stop-color="#4F4F4F"/>
<stop offset="0.9638" stop-color="#636363"/>
<stop offset="1" stop-color="#747474"/>
</linearGradient>
<linearGradient id="paint2_linear_216_38753" x1="20.7625" y1="55.1474" x2="66.9656" y2="8.9443" gradientUnits="userSpaceOnUse">
<stop stop-color="#63307B"/>
<stop offset="0.484" stop-color="#992BE6"/>
<stop offset="1" stop-color="#6B1C8B"/>
</linearGradient>
</defs>
</svg>
