<svg width="88" height="64" viewBox="0 0 88 64" fill="none" xmlns="http://www.w3.org/2000/svg">
<path d="M0 0H82C85.3115 0 88 2.6886 88 6.0001V58.0001C88 61.3116 85.3115 64.0001 82 64.0001H0V0Z" fill="url(#paint0_linear_216_38741)"/>
<path d="M82 0.5C85.0327 0.5 87.5 2.9673 87.5 6V58C87.5 61.0327 85.0327 63.5 82 63.5H0.5V0.5H82ZM82 0H0V64H82C85.3137 64 88 61.3137 88 58V6C88 2.6863 85.3137 0 82 0Z" fill="#747474"/>
<path d="M81.3809 62.82H1.62207V1.17969H81.381C84.1405 1.17969 86.3776 3.41669 86.3776 6.17629V57.8235C86.3776 60.583 84.1405 62.82 81.3809 62.82Z" fill="url(#paint1_linear_216_38741)"/>
<path d="M80.0011 4H7.9989C5.79037 4 4 5.79037 4 7.9989V56.0011C4 58.2096 5.79037 60 7.9989 60H80.0011C82.2096 60 84 58.2096 84 56.0011V7.9989C84 5.79037 82.2096 4 80.0011 4Z" fill="#373737"/>
<defs>
<linearGradient id="paint0_linear_216_38741" x1="0" y1="32.0001" x2="88" y2="32.0001" gradientUnits="userSpaceOnUse">
<stop stop-color="#747474"/>
<stop offset="0.1673" stop-color="#9A9A9A"/>
<stop offset="0.3513" stop-color="#969696"/>
<stop offset="0.4994" stop-color="#8C8C8C"/>
<stop offset="0.635" stop-color="#7B7B7B"/>
<stop offset="0.7624" stop-color="#646464"/>
<stop offset="0.8728" stop-color="#494949"/>
<stop offset="0.91" stop-color="#4F4F4F"/>
<stop offset="0.9638" stop-color="#636363"/>
<stop offset="1" stop-color="#747474"/>
</linearGradient>
<linearGradient id="paint1_linear_216_38741" x1="86.3775" y1="31.9999" x2="1.62207" y2="31.9999" gradientUnits="userSpaceOnUse">
<stop stop-color="#6F6F6F"/>
<stop offset="0.1673" stop-color="#9A9A9A"/>
<stop offset="0.3513" stop-color="#969696"/>
<stop offset="0.4994" stop-color="#8C8C8C"/>
<stop offset="0.635" stop-color="#7B7B7B"/>
<stop offset="0.7624" stop-color="#646464"/>
<stop offset="0.8728" stop-color="#494949"/>
<stop offset="0.91" stop-color="#4F4F4F"/>
<stop offset="0.9638" stop-color="#636363"/>
<stop offset="1" stop-color="#747474"/>
</linearGradient>
</defs>
</svg>
