<svg width="88" height="64" viewBox="0 0 88 64" fill="none" xmlns="http://www.w3.org/2000/svg">
<path d="M0 0H82C85.3115 0 88 2.6886 88 6.0001V58.0001C88 61.3116 85.3115 64.0001 82 64.0001H0V0Z" fill="url(#paint0_linear_216_38747)"/>
<path d="M82 0.5C85.0327 0.5 87.5 2.9673 87.5 6V58C87.5 61.0327 85.0327 63.5 82 63.5H0.5V0.5H82ZM82 0H0V64H82C85.3137 64 88 61.3137 88 58V6C88 2.6863 85.3137 0 82 0Z" fill="#747474"/>
<path d="M81.3809 62.82H1.62207V1.17969H81.381C84.1405 1.17969 86.3776 3.41669 86.3776 6.17629V57.8235C86.3776 60.583 84.1405 62.82 81.3809 62.82Z" fill="url(#paint1_linear_216_38747)"/>
<path d="M80.0011 4H7.9989C5.79037 4 4 5.79037 4 7.9989V56.0011C4 58.2096 5.79037 60 7.9989 60H80.0011C82.2096 60 84 58.2096 84 56.0011V7.9989C84 5.79037 82.2096 4 80.0011 4Z" fill="#373737"/>
<path d="M41.8116 51.5302C37.9757 51.5302 33.8038 50.6191 29.4932 48.5195C22.9942 45.3545 11.1299 45.3955 11.0088 45.3945L10.9658 39.3944C11.5088 39.3788 24.3535 39.3408 32.1201 43.125C43.79 48.8096 52.0566 43.5497 54.7666 38.6308C55.8184 36.7206 56.1621 34.8428 55.584 34.167C55.2822 33.8135 52.1289 30.913 34.3692 37.3594C26.0938 40.3633 21.6485 36.9726 20.1221 35.373C17.501 32.6308 16.6856 28.5118 18.0928 25.1251C20.0391 20.4356 23.6758 16.9249 28.6084 14.9737C33.998 12.8409 43.4121 11.6485 57.6514 18.0753C58.3106 18.3732 58.96 18.6857 59.6231 19.006C63.7706 21.007 68.4708 23.2754 81.296 23.2754V29.2754C67.0987 29.2754 61.5079 26.5773 57.0148 24.4093C56.3986 24.1124 55.796 23.8204 55.1828 23.5441C45.5666 19.2043 36.9123 18.1418 30.8156 20.5529C27.4279 21.8927 24.9445 24.2696 23.634 27.4258C23.2111 28.4434 23.3596 30.0763 24.4602 31.2285C25.968 32.8076 28.8342 32.9853 32.3225 31.7188C47.4534 26.2285 56.2932 25.7656 60.1428 30.2656C62.4592 32.9727 62.4143 37.1817 60.0227 41.5254C56.8723 47.2462 50.1319 51.5292 41.8116 51.5302Z" fill="url(#paint2_linear_216_38747)"/>
<defs>
<linearGradient id="paint0_linear_216_38747" x1="0" y1="32.0001" x2="88" y2="32.0001" gradientUnits="userSpaceOnUse">
<stop stop-color="#747474"/>
<stop offset="0.1673" stop-color="#9A9A9A"/>
<stop offset="0.3513" stop-color="#969696"/>
<stop offset="0.4994" stop-color="#8C8C8C"/>
<stop offset="0.635" stop-color="#7B7B7B"/>
<stop offset="0.7624" stop-color="#646464"/>
<stop offset="0.8728" stop-color="#494949"/>
<stop offset="0.91" stop-color="#4F4F4F"/>
<stop offset="0.9638" stop-color="#636363"/>
<stop offset="1" stop-color="#747474"/>
</linearGradient>
<linearGradient id="paint1_linear_216_38747" x1="86.3775" y1="31.9999" x2="1.62207" y2="31.9999" gradientUnits="userSpaceOnUse">
<stop stop-color="#6F6F6F"/>
<stop offset="0.1673" stop-color="#9A9A9A"/>
<stop offset="0.3513" stop-color="#969696"/>
<stop offset="0.4994" stop-color="#8C8C8C"/>
<stop offset="0.635" stop-color="#7B7B7B"/>
<stop offset="0.7624" stop-color="#646464"/>
<stop offset="0.8728" stop-color="#494949"/>
<stop offset="0.91" stop-color="#4F4F4F"/>
<stop offset="0.9638" stop-color="#636363"/>
<stop offset="1" stop-color="#747474"/>
</linearGradient>
<linearGradient id="paint2_linear_216_38747" x1="20.7623" y1="55.148" x2="66.9654" y2="8.94476" gradientUnits="userSpaceOnUse">
<stop stop-color="#BE9311"/>
<stop offset="0.484" stop-color="#FFD130"/>
<stop offset="1" stop-color="#BE8D00"/>
</linearGradient>
</defs>
</svg>
