<svg width="88" height="64" viewBox="0 0 88 64" fill="none" xmlns="http://www.w3.org/2000/svg">
<path d="M0 0H82C85.3115 0 88 2.6886 88 6.0001V58.0001C88 61.3116 85.3115 64.0001 82 64.0001H0V0Z" fill="url(#paint0_linear_216_38744)"/>
<path d="M82 0.5C85.0327 0.5 87.5 2.9673 87.5 6V58C87.5 61.0327 85.0327 63.5 82 63.5H0.5V0.5H82ZM82 0H0V64H82C85.3137 64 88 61.3137 88 58V6C88 2.6863 85.3137 0 82 0Z" fill="#747474"/>
<path d="M81.3809 62.82H1.62207V1.17969H81.381C84.1405 1.17969 86.3776 3.41669 86.3776 6.17629V57.8235C86.3776 60.583 84.1405 62.82 81.3809 62.82Z" fill="url(#paint1_linear_216_38744)"/>
<path d="M80.0011 4H7.9989C5.79037 4 4 5.79037 4 7.9989V56.0011C4 58.2096 5.79037 60 7.9989 60H80.0011C82.2096 60 84 58.2096 84 56.0011V7.9989C84 5.79037 82.2096 4 80.0011 4Z" fill="#373737"/>
<path d="M41.8116 51.5296C37.9757 51.5296 33.8038 50.6185 29.4932 48.5189C22.9942 45.3529 11.1299 45.3871 11.0088 45.3939V39.5C11.5518 39.5049 24.3535 39.3402 32.1201 43.1244C43.79 48.8099 52.0566 43.5512 54.7666 38.6303C55.8184 36.7201 56.1621 34.8422 55.584 34.1664C55.2822 33.8129 52.1289 30.9125 34.3692 37.3588C26.0938 40.3608 21.6485 36.9721 20.1221 35.3725C17.501 32.6303 16.6856 28.5112 18.0928 25.1245C20.0391 20.435 23.6758 16.9243 28.6084 14.9731C33.998 12.8393 43.4121 11.6479 57.6514 18.0747C58.3106 18.3726 58.96 18.6851 59.6231 19.0054C63.7706 21.0064 68.4708 23.2749 81.296 23.2749V29.2749C67.0987 29.2749 61.5079 26.5767 57.0148 24.4087C56.3986 24.1118 55.796 23.8198 55.1828 23.5435C45.5666 19.2037 36.9123 18.1402 30.8156 20.5523C27.4279 21.8921 24.9445 24.2691 23.634 27.4253C23.2111 28.4429 23.3596 30.0757 24.4602 31.228C25.968 32.8061 28.8342 32.9858 32.3225 31.7182C47.4534 26.228 56.2932 25.7651 60.1428 30.2651C62.4592 32.9721 62.4143 37.1811 60.0227 41.5249C56.8723 47.2456 50.1319 51.5286 41.8116 51.5296Z" fill="url(#paint2_linear_216_38744)"/>
<defs>
<linearGradient id="paint0_linear_216_38744" x1="0" y1="32.0001" x2="88" y2="32.0001" gradientUnits="userSpaceOnUse">
<stop stop-color="#747474"/>
<stop offset="0.1673" stop-color="#9A9A9A"/>
<stop offset="0.3513" stop-color="#969696"/>
<stop offset="0.4994" stop-color="#8C8C8C"/>
<stop offset="0.635" stop-color="#7B7B7B"/>
<stop offset="0.7624" stop-color="#646464"/>
<stop offset="0.8728" stop-color="#494949"/>
<stop offset="0.91" stop-color="#4F4F4F"/>
<stop offset="0.9638" stop-color="#636363"/>
<stop offset="1" stop-color="#747474"/>
</linearGradient>
<linearGradient id="paint1_linear_216_38744" x1="86.3775" y1="31.9999" x2="1.62207" y2="31.9999" gradientUnits="userSpaceOnUse">
<stop stop-color="#6F6F6F"/>
<stop offset="0.1673" stop-color="#9A9A9A"/>
<stop offset="0.3513" stop-color="#969696"/>
<stop offset="0.4994" stop-color="#8C8C8C"/>
<stop offset="0.635" stop-color="#7B7B7B"/>
<stop offset="0.7624" stop-color="#646464"/>
<stop offset="0.8728" stop-color="#494949"/>
<stop offset="0.91" stop-color="#4F4F4F"/>
<stop offset="0.9638" stop-color="#636363"/>
<stop offset="1" stop-color="#747474"/>
</linearGradient>
<linearGradient id="paint2_linear_216_38744" x1="20.7623" y1="55.1474" x2="66.9654" y2="8.94419" gradientUnits="userSpaceOnUse">
<stop stop-color="#484CCD"/>
<stop offset="0.484" stop-color="#2334E6"/>
<stop offset="1" stop-color="#2427DD"/>
</linearGradient>
</defs>
</svg>
